<svg width="24" height="24" viewBox="0 0 24 24" fill="none" xmlns="http://www.w3.org/2000/svg">
<rect width="24" height="24" fill="white"/>
<path fill-rule="evenodd" clip-rule="evenodd" d="M15.5156 3.56628C15.5156 2.78961 16.1452 2.16003 16.9219 2.16003C17.6985 2.16003 18.3281 2.78961 18.3281 3.56628V17.6288C18.3281 18.4054 17.6985 19.035 16.9219 19.035C16.1452 19.035 15.5156 18.4054 15.5156 17.6288V3.56628ZM21.3466 6.58475C21.6212 6.31011 22.0662 6.31011 22.3409 6.58475C22.6155 6.85939 22.6155 7.30438 22.3409 7.57902L20.9346 8.98527C20.66 9.25996 20.215 9.25991 19.9403 8.98527C19.6657 8.71063 19.6657 8.26564 19.9403 7.991L21.3466 6.58475ZM23.2969 10.5975H21.1406C20.752 10.5975 20.4375 10.912 20.4375 11.3007C20.4375 11.6893 20.752 12.0038 21.1406 12.0038H23.2969C23.6855 12.0038 24 11.6893 24 11.3007C24 10.912 23.6855 10.5975 23.2969 10.5975ZM22.3409 15.0223L20.9347 13.616C20.66 13.3414 20.215 13.3414 19.9404 13.616C19.6658 13.8906 19.6657 14.3356 19.9404 14.6103L21.3466 16.0165C21.6213 16.2912 22.0663 16.2912 22.3409 16.0165C22.6155 15.7419 22.6155 15.2969 22.3409 15.0223ZM4.96875 6.37878C4.05328 6.37878 3.28013 6.96838 2.98889 7.78503H2.85938C1.30823 7.78503 0 9.04639 0 10.5975C0 12.1487 1.30823 13.41 2.85938 13.41H2.98889C3.28013 14.2267 4.05328 14.8163 4.96875 14.8163H8.48438V6.37878H4.96875ZM4.96875 16.2225C4.728 16.2225 4.49292 16.1977 4.26562 16.1514V19.7382C4.26562 20.9013 5.21184 21.8475 6.375 21.8475C7.53816 21.8475 8.48438 20.9013 8.48438 19.7382V16.2225H4.96875ZM9.89062 6.31016C11.2482 6.15364 12.5107 5.57689 13.4914 4.59627L14.1094 3.97827V17.2168L13.4914 16.5988C12.5108 15.6182 11.2482 15.0414 9.89062 14.885V6.31016Z" fill="#D8D8D9"/>
</svg>
