<svg width="268" height="268" viewBox="0 0 268 268" fill="none" xmlns="http://www.w3.org/2000/svg">
<path fill-rule="evenodd" clip-rule="evenodd" d="M134 268C208.006 268 268 208.006 268 134C268 59.9938 208.006 0 134 0C59.9938 0 0 59.9938 0 134C0 208.006 59.9938 268 134 268ZM134 250C198.065 250 250 198.065 250 134C250 69.935 198.065 18 134 18C69.935 18 18 69.935 18 134C18 198.065 69.935 250 134 250Z" fill="#FF6F60"/>
<path fill-rule="evenodd" clip-rule="evenodd" d="M59.2924 22.7414C59.0158 22.9275 58.7399 23.1146 58.4648 23.3027L58.4753 23.3184C55.7988 24.878 54 27.7789 54 31.1C54 36.0706 58.0294 40.1 63 40.1C65.0638 40.1 66.9654 39.4053 68.4836 38.2371L68.4941 38.2527C68.7691 38.0643 69.0448 37.877 69.3214 37.6909L69.2465 37.5793C70.9441 35.9423 72 33.6445 72 31.1C72 26.1294 67.9706 22.1 63 22.1C61.7094 22.1 60.4822 22.3717 59.3726 22.8609L59.2924 22.7414ZM133.5 18.0011V17.9863C128.762 17.7269 125 13.8028 125 9C125 4.19722 128.762 0.273095 133.5 0.0136542V0.000913085C133.667 0.000304537 133.833 0 134 0C137.927 0 141.815 0.168957 145.657 0.5H136.965C140.479 1.72571 143 5.06846 143 9C143 13.8028 139.238 17.7269 134.5 17.9863V18.0011C134.333 18.0004 134.167 18 134 18C133.833 18 133.667 18.0004 133.5 18.0011ZM267.5 145.657C267.831 141.815 268 137.927 268 134C268 130.073 267.831 126.185 267.5 122.343V145.657ZM122.343 267.5C126.185 267.831 130.073 268 134 268C137.927 268 141.815 267.831 145.657 267.5H122.343ZM0.5 145.657V122.343C0.168957 126.185 0 130.073 0 134C0 137.927 0.168957 141.815 0.5 145.657Z" fill="#13322B"/>
<path fill-rule="evenodd" clip-rule="evenodd" d="M265.662 108.944C265.723 109.272 265.784 109.6 265.844 109.928L265.776 109.941C265.792 110.158 265.8 110.378 265.8 110.6C265.8 115.571 261.771 119.6 256.8 119.6C252.787 119.6 249.388 116.974 248.227 113.346L248.169 113.357C248.132 113.152 248.094 112.947 248.057 112.742C247.889 112.056 247.8 111.338 247.8 110.6C247.8 105.629 251.829 101.6 256.8 101.6C261.206 101.6 264.872 104.766 265.649 108.947L265.662 108.944ZM133.5 0.000913085V18.0011C133.667 18.0004 133.833 18 134 18C134.167 18 134.333 18.0004 134.5 18.0011V0.5H145.657C141.815 0.168957 137.927 0 134 0C133.833 0 133.667 0.000304537 133.5 0.000913085Z" fill="#CFAA72"/>
<circle cx="134" cy="9" r="9" fill="#FF6F60"/>
</svg>
