<svg width="24" height="20" viewBox="0 0 24 20" fill="none" xmlns="http://www.w3.org/2000/svg">
<path fill-rule="evenodd" clip-rule="evenodd" d="M15.5156 1.56628C15.5156 0.789612 16.1452 0.160034 16.9219 0.160034C17.6985 0.160034 18.3281 0.789612 18.3281 1.56628V15.6288C18.3281 16.4054 17.6985 17.035 16.9219 17.035C16.1452 17.035 15.5156 16.4054 15.5156 15.6288V1.56628ZM21.3466 4.58475C21.6212 4.31011 22.0662 4.31011 22.3409 4.58475C22.6155 4.85939 22.6155 5.30438 22.3409 5.57902L20.9346 6.98527C20.66 7.25996 20.215 7.25991 19.9403 6.98527C19.6657 6.71063 19.6657 6.26564 19.9403 5.991L21.3466 4.58475ZM23.2969 8.59753H21.1406C20.752 8.59753 20.4375 8.91202 20.4375 9.30066C20.4375 9.6893 20.752 10.0038 21.1406 10.0038H23.2969C23.6855 10.0038 24 9.6893 24 9.30066C24 8.91202 23.6855 8.59753 23.2969 8.59753ZM22.3409 13.0223L20.9347 11.616C20.66 11.3414 20.215 11.3414 19.9404 11.616C19.6658 11.8906 19.6657 12.3356 19.9404 12.6103L21.3466 14.0165C21.6213 14.2912 22.0663 14.2912 22.3409 14.0165C22.6155 13.7419 22.6155 13.2969 22.3409 13.0223ZM4.96875 4.37878C4.05328 4.37878 3.28013 4.96838 2.98889 5.78503H2.85938C1.30823 5.78503 0 7.04639 0 8.59753C0 10.1487 1.30823 11.41 2.85938 11.41H2.98889C3.28013 12.2267 4.05328 12.8163 4.96875 12.8163H8.48438V4.37878H4.96875ZM4.96875 14.2225C4.728 14.2225 4.49292 14.1977 4.26562 14.1514V17.7382C4.26562 18.9013 5.21184 19.8475 6.375 19.8475C7.53816 19.8475 8.48438 18.9013 8.48438 17.7382V14.2225H4.96875ZM9.89062 4.31016C11.2482 4.15364 12.5107 3.57689 13.4914 2.59627L14.1094 1.97827V15.2168L13.4914 14.5988C12.5108 13.6182 11.2482 13.0414 9.89062 12.885V4.31016Z" fill="#D8D8D9"/>
</svg>
