<svg width="24" height="24" viewBox="0 0 24 24" fill="none" xmlns="http://www.w3.org/2000/svg">
<rect width="24" height="24" fill="white"/>
<path fill-rule="evenodd" clip-rule="evenodd" d="M22 10.5H2.00001C1.44772 10.5 1.00001 10.0523 1.00001 9.50002C1.00001 8.94773 1.44772 8.50002 2.00001 8.50002H20L18.2 6.10002C17.9856 5.8142 17.9401 5.43574 18.0804 5.1072C18.2207 4.77865 18.5257 4.54993 18.8804 4.5072C19.2351 4.46446 19.5856 4.6142 19.8 4.90002L22.8 8.90002C23.0273 9.20303 23.0638 9.60845 22.8944 9.94723C22.725 10.286 22.3788 10.5 22 10.5ZM2.00001 13.5H22C22.5523 13.5 23 13.9477 23 14.5C23 15.0523 22.5523 15.5 22 15.5H4.00001L5.80001 17.9C6.01437 18.1858 6.05996 18.5643 5.91962 18.8928C5.77928 19.2214 5.47432 19.4501 5.11962 19.4928C4.76492 19.5356 4.41437 19.3858 4.20001 19.1L1.20001 15.1C0.972743 14.797 0.936187 14.3916 1.10558 14.0528C1.27497 13.714 1.62123 13.5 2.00001 13.5Z" fill="#D8D8D9"/>
<path d="M20 8.50002V8.80002H20.6L20.24 8.32002L20 8.50002ZM18.2 6.10002L18.44 5.92002L18.2 6.10002ZM18.8804 4.5072L18.8445 4.20935L18.8804 4.5072ZM19.8 4.90002L19.56 5.08002V5.08002L19.8 4.90002ZM22.8 8.90002L23.04 8.72002L22.8 8.90002ZM4.00001 15.5V15.2H3.40001L3.76001 15.68L4.00001 15.5ZM5.80001 17.9L6.04001 17.72L6.04001 17.72L5.80001 17.9ZM5.11962 19.4928L5.15551 19.7907H5.15551L5.11962 19.4928ZM1.20001 15.1L1.44001 14.92L1.20001 15.1ZM1.10558 14.0528L1.37391 14.187H1.37391L1.10558 14.0528ZM2.00001 10.8H22V10.2H2.00001V10.8ZM0.700006 9.50002C0.700006 10.218 1.28204 10.8 2.00001 10.8V10.2C1.61341 10.2 1.30001 9.88662 1.30001 9.50002H0.700006ZM2.00001 8.20002C1.28204 8.20002 0.700006 8.78205 0.700006 9.50002H1.30001C1.30001 9.11342 1.61341 8.80002 2.00001 8.80002V8.20002ZM20 8.20002H2.00001V8.80002H20V8.20002ZM17.96 6.28002L19.76 8.68002L20.24 8.32002L18.44 5.92002L17.96 6.28002ZM17.8045 4.98935C17.6221 5.41646 17.6813 5.90846 17.96 6.28002L18.44 5.92002C18.29 5.71995 18.258 5.45502 18.3563 5.22504L17.8045 4.98935ZM18.8445 4.20935C18.3834 4.2649 17.9869 4.56224 17.8045 4.98935L18.3563 5.22504C18.4545 4.99506 18.668 4.83496 18.9163 4.80504L18.8445 4.20935ZM20.04 4.72002C19.7613 4.34846 19.3056 4.15379 18.8445 4.20935L18.9163 4.80504C19.1646 4.77513 19.41 4.87995 19.56 5.08002L20.04 4.72002ZM23.04 8.72002L20.04 4.72002L19.56 5.08002L22.56 9.08002L23.04 8.72002ZM23.1628 10.0814C23.383 9.64097 23.3354 9.11394 23.04 8.72002L22.56 9.08002C22.7191 9.29213 22.7447 9.57592 22.6261 9.81307L23.1628 10.0814ZM22 10.8C22.4924 10.8 22.9426 10.5218 23.1628 10.0814L22.6261 9.81307C22.5075 10.0502 22.2651 10.2 22 10.2V10.8ZM22 13.2H2.00001V13.8H22V13.2ZM23.3 14.5C23.3 13.782 22.718 13.2 22 13.2V13.8C22.3866 13.8 22.7 14.1134 22.7 14.5H23.3ZM22 15.8C22.718 15.8 23.3 15.218 23.3 14.5H22.7C22.7 14.8866 22.3866 15.2 22 15.2V15.8ZM4.00001 15.8H22V15.2H4.00001V15.8ZM6.04001 17.72L4.24001 15.32L3.76001 15.68L5.56001 18.08L6.04001 17.72ZM6.19551 19.0107C6.37795 18.5836 6.31867 18.0916 6.04001 17.72L5.56001 18.08C5.71006 18.2801 5.74198 18.545 5.64374 18.775L6.19551 19.0107ZM5.15551 19.7907C5.61662 19.7351 6.01306 19.4378 6.19551 19.0107L5.64374 18.775C5.5455 19.005 5.33203 19.1651 5.08374 19.195L5.15551 19.7907ZM3.96001 19.28C4.23867 19.6516 4.6944 19.8462 5.15551 19.7907L5.08374 19.195C4.83545 19.2249 4.59006 19.1201 4.44001 18.92L3.96001 19.28ZM0.960006 15.28L3.96001 19.28L4.44001 18.92L1.44001 14.92L0.960006 15.28ZM0.837251 13.9186C0.617041 14.3591 0.664564 14.8861 0.960006 15.28L1.44001 14.92C1.28092 14.7079 1.25533 14.4241 1.37391 14.187L0.837251 13.9186ZM2.00001 13.2C1.5076 13.2 1.05746 13.4782 0.83725 13.9186L1.37391 14.187C1.49248 13.9498 1.73487 13.8 2.00001 13.8V13.2Z" fill="#D8D8D9"/>
</svg>
