<svg width="24" height="22" viewBox="0 0 24 22" fill="none" xmlns="http://www.w3.org/2000/svg">
<path fill-rule="evenodd" clip-rule="evenodd" d="M22.62 1.6355L23.9775 7.0685C23.9925 7.127 24 7.1885 24 7.25C24 9.317 22.4025 11 20.4375 11C19.2945 11 18.2775 10.4315 17.625 9.5495C16.9725 10.4315 15.9555 11 14.8125 11C13.6695 11 12.6525 10.4315 12 9.5495C11.3475 10.4315 10.329 11 9.1875 11C8.046 11 7.0275 10.4315 6.375 9.5495C5.7225 10.4315 4.704 11 3.5625 11C1.5975 11 0 9.317 0 7.25C0 7.1885 0.0075 7.127 0.0225 7.0685L1.38 1.6355C1.548 0.968 2.148 0.5 2.8365 0.5H21.165C21.8535 0.5 22.4535 0.968 22.62 1.6355ZM17.625 11.618C18.4455 12.188 19.416 12.5 20.4375 12.5C21.174 12.5 21.8685 12.3275 22.5 12.0335V20C22.5 20.828 21.828 21.5 21 21.5H15V15.5H9V21.5H3C2.172 21.5 1.5 20.828 1.5 20V12.0335C2.1315 12.3275 2.826 12.5 3.5625 12.5C4.584 12.5 5.5545 12.188 6.375 11.618C8.016 12.7595 10.359 12.7595 12 11.618C13.641 12.7595 15.984 12.7595 17.625 11.618Z" fill="#D8D8D9"/>
</svg>
