<svg width="740" height="710" viewBox="0 0 740 710" fill="none" xmlns="http://www.w3.org/2000/svg">
<rect x="330" width="80.8927" height="207" fill="#13322B"/>
<path fill-rule="evenodd" clip-rule="evenodd" d="M368.054 129.576C368.054 123.933 365.569 118.018 355.889 110.961H354.814L352.664 113.65C346.819 120.905 344.87 126.552 344.87 130.652C344.87 136.164 348.229 142.749 356.361 142.749C360.394 142.749 368.054 140.063 368.054 129.576ZM347.406 127.627C347.406 125.41 350.836 123.795 354.598 123.393C360.177 126.284 365.151 129.375 365.151 131.057C365.151 132.333 360.914 132.668 357.622 132.668C352.179 132.668 347.406 130.45 347.406 127.627Z" fill="#CFAA72"/>
<path fill-rule="evenodd" clip-rule="evenodd" d="M386.119 65.3257L376.643 58.2687H375.568L368.377 69.6386C368.264 69.8121 368.155 69.9888 368.045 70.1654L368.045 70.1655L367.96 70.2995C365.892 73.7382 364.609 78.0845 364.609 81.5902C364.609 86.1588 365.758 89.7894 369.084 92.3814C362.151 96.2404 354.047 100.605 344.851 105.174V106.52L368.709 104.571C371.706 101.619 374.636 98.6709 377.398 95.8261C377.974 95.951 378.568 96.0637 379.192 96.1673L391.829 98.2567C398.082 82.5405 398.283 74.3991 386.119 65.3257ZM367.302 78.9678C367.302 75.8763 370.326 71.9138 373.351 71.9138C376.844 71.9138 380.07 76.4154 380.137 79.9089C380.17 81.7516 379.36 83.2775 377.85 84.7517C369.388 83.0339 367.302 81.4501 367.302 78.9678ZM382.879 85.6639C383.065 85.6946 383.253 85.7257 383.444 85.7568L392.112 87.1792C392.853 83.0796 390.096 80.1251 384.519 75.9555L382.229 74.2407C382.648 75.6725 382.875 77.1534 382.905 78.6449C382.906 80.9802 382.448 83.293 381.559 85.4522C381.988 85.5169 382.427 85.5893 382.879 85.6639Z" fill="#CFAA72"/>
<path fill-rule="evenodd" clip-rule="evenodd" d="M374.352 120.101C374.352 111.768 379.734 104.038 384.708 104.038C391.631 104.038 395.526 112.709 395.52 120.122C395.52 135.526 382.986 146.286 372.613 155.189C372.271 155.482 371.932 155.773 371.596 156.062L345.049 158.012V156.669C367.871 146.356 383.06 138.242 388.722 132.607C377.971 130.31 374.352 126.817 374.352 120.101ZM381.211 114.052C378.793 114.052 376.576 115.386 376.576 116.604C376.576 118.398 379.877 119.452 391.281 121.283C389.048 116.857 384.894 114.052 381.211 114.052Z" fill="#CFAA72"/>
<path d="M345.996 71.7768L353.388 79.1719L360.848 71.7768L353.388 64.4517L345.996 71.7768V71.7768Z" fill="#CFAA72"/>
<path d="M379.802 22.1793L387.194 29.5714L394.656 22.1793L387.194 14.8512L379.802 22.1793V22.1793Z" fill="#CFAA72"/>
<path fill-rule="evenodd" clip-rule="evenodd" d="M344.854 60.486V59.1428C371.063 46.0368 388.674 35.0081 394.318 31.0486L395.058 31.9227C390.556 37.2315 380.069 47.9191 368.712 58.5367L344.854 60.486ZM353.388 93.889L345.996 86.4969L353.388 79.1718L360.848 86.4969L353.388 93.889Z" fill="#CFAA72"/>
<path fill-rule="evenodd" clip-rule="evenodd" d="M346.359 189.688V192.271L345.308 192.277V185.792H348.095C349.283 185.792 349.98 186.56 349.98 187.738C349.98 188.917 349.283 189.688 348.095 189.688H346.359ZM348.028 186.706H346.359V188.78H348.037C348.262 188.809 348.489 188.735 348.653 188.579C348.817 188.422 348.902 188.199 348.884 187.973V187.528C348.906 187.298 348.822 187.07 348.655 186.909C348.488 186.749 348.257 186.674 348.028 186.706Z" fill="#CFAA72"/>
<path d="M355.365 192.283V191.354H353.19V185.798H352.143V192.283H355.365V192.283Z" fill="#CFAA72"/>
<path fill-rule="evenodd" clip-rule="evenodd" d="M361.067 185.792L363.266 192.283L362.182 192.277L361.597 190.519H359.161L358.594 192.277H357.528L359.736 185.792H361.067ZM359.413 189.627H361.326L360.397 186.767H360.351L359.413 189.627Z" fill="#CFAA72"/>
<path d="M369.291 192.283H370.463V185.798H369.458V190.76H369.431L368.715 189.383L366.598 185.798H365.428V192.283H366.431V187.321H366.458L367.174 188.698L369.291 192.283V192.283Z" fill="#CFAA72"/>
<path d="M376.487 192.283H377.657V185.798H376.655V190.76H376.628L375.912 189.383L373.795 185.798H372.622V192.283H373.627V187.321H373.655L374.371 188.698L376.487 192.283V192.283Z" fill="#CFAA72"/>
<path d="M386.895 192.283H388.065V185.798H387.063V190.76H387.035L386.32 189.383L384.203 185.798H383.033V192.283H384.035V187.321H384.063L384.778 188.698L386.895 192.283V192.283Z" fill="#CFAA72"/>
<path d="M379.82 185.811V192.283H380.871V185.811" fill="#CFAA72"/>
<path fill-rule="evenodd" clip-rule="evenodd" d="M359.133 182.061L361.286 175.577H360.232L359.2 178.787L358.569 181.044H358.533L357.923 178.787L356.891 175.583H355.794L357.926 182.067L359.133 182.061ZM382.954 182.061H384.123V175.577H383.121V180.538H383.094L382.387 179.162L380.255 175.577H379.086V182.061H380.088V177.1H380.115L380.831 178.476L382.954 182.061ZM392.743 182.061H393.791V176.506H395.725V175.592H390.815V176.506H392.743V182.061ZM372.068 181.148V182.061L367.923 182.092V175.607H372.086V176.521H368.986V178.324H371.8V179.253H368.986V181.148H372.068ZM349.456 181.148V182.061L345.308 182.092V175.607H349.459V176.521H346.359V178.324H349.17V179.253H346.359V181.148H349.456Z" fill="#CFAA72"/>
<path fill-rule="evenodd" clip-rule="evenodd" d="M380.487 168.495L379.643 171.846L378.446 171.843L376.923 165.358H377.992L378.65 168.48L379.107 170.633H379.134L379.655 168.48L380.426 165.358H381.595L382.357 168.48L382.868 170.612H382.896L383.368 168.48L384.047 165.358H385.077L383.481 171.843H382.302L381.473 168.492L380.998 166.528H380.98L380.487 168.495ZM395.764 171.846L393.553 165.361H392.234L390.023 171.846H391.092L391.659 170.088H394.095L394.68 171.846H395.764ZM393.821 169.19H391.908L392.846 166.33H392.895L393.821 169.19ZM370.201 171.846H371.249V165.361H370.204V168.102H367.28V165.361H366.245V171.846H367.293V169.022H370.204L370.201 171.846ZM356.729 169.19H358.627L357.716 166.33H357.668L356.729 169.19ZM360.57 171.846L358.359 165.361H357.055L354.844 171.846H355.913L356.48 170.088H358.916L359.501 171.846H360.57ZM346.033 170.917H349.639L349.654 171.846H344.854V170.908L348.372 166.299H345.04V165.361H349.551V166.299L346.033 170.917Z" fill="#CFAA72"/>
<path d="M394.683 192.167H395.597V188.713H393.248V189.627H394.585V190.126C394.585 190.937 393.87 191.345 393.063 191.345C392.039 191.345 391.354 190.647 391.354 189.459V188.399C391.354 187.212 392.039 186.514 393.063 186.514C393.749 186.483 394.377 186.896 394.622 187.537L395.478 187.035C395.045 186.102 394.09 185.525 393.063 185.576C391.363 185.576 390.23 186.767 390.23 188.926C390.23 191.086 391.363 192.277 392.904 192.277C393.888 192.277 394.518 191.802 394.649 191.18H394.686L394.683 192.167Z" fill="#CFAA72"/>
<path fill-rule="evenodd" clip-rule="evenodd" d="M247.861 318.533H46.3059C46.2333 317.029 46.3116 315.407 46.5292 313.718V313.715C47.1708 308.705 49.0283 303.112 51.7534 298.318C56.0143 290.809 62.4022 285.257 69.574 286.972C71.7711 287.495 74.0408 288.702 76.3454 290.743C79.799 293.802 82.5797 297.557 86.0015 300.654C89.4203 303.751 93.797 306.238 98.3974 305.902C104.162 305.484 108.303 300.329 109.165 294.899C111.24 281.835 111.11 256.027 127.444 252.451C127.752 252.385 128.059 252.324 128.361 252.275C142.316 249.886 151.943 263.521 155.658 275.737C156.082 277.124 156.427 278.495 156.694 279.821C157.455 283.014 157.745 286.496 157.87 290.026C157.893 290.249 157.919 290.47 157.945 290.69C158.055 291.636 158.18 292.574 158.34 293.497C158.729 295.772 159.306 297.943 160.273 299.859C160.642 300.596 161.161 301.357 161.962 301.551C164.191 302.091 166.06 299.508 167.337 297.45C167.697 296.872 168.01 296.335 168.272 295.92C172.321 289.495 183.492 285.211 188.536 292.916C192.06 298.303 189.128 308.798 196.465 311.48C204.879 314.556 206.998 303.493 207.747 297.819C208.667 290.847 208.513 283.704 210.568 276.919C211.439 274.887 212.89 272.565 215.212 272.275C217.534 272.275 219.565 274.016 220.439 276.051C223.013 282.302 223.721 289.048 224.662 295.685C225.428 301.069 226.473 312.949 233.633 313.616C237.435 313.967 240.874 307.182 244.398 310.188C246.633 312.095 246.514 316.083 247.861 318.533" fill="#DCE5F7"/>
<path fill-rule="evenodd" clip-rule="evenodd" d="M280.032 327.785L259.976 329.689C242.955 331.306 229.953 345.601 229.953 362.699V368.378H298.138L306.465 339.992L280.032 327.785" fill="#CFAA72"/>
<path fill-rule="evenodd" clip-rule="evenodd" d="M553.641 646.613L196.855 614.873L218.198 374.945L574.984 406.684L553.641 646.613ZM581.539 390.663L214.576 358.02C208.289 357.46 202.737 362.103 202.177 368.394L179.975 617.992C179.388 624.562 184.241 630.361 190.811 630.944L556.76 663.5C563.33 664.083 569.129 659.231 569.711 652.664L591.917 403.062C592.477 396.776 587.833 391.224 581.539 390.663V390.663Z" fill="#304F42"/>
<path fill-rule="evenodd" clip-rule="evenodd" d="M574.984 406.684L553.641 646.613L521.955 643.793L301.942 624.222L196.855 614.873L218.198 374.945L283.431 380.747L503.444 400.322L574.984 406.684" fill="white"/>
<path fill-rule="evenodd" clip-rule="evenodd" d="M404.899 706.749L332.655 700.322C328.976 699.993 326.066 698.933 326.153 697.953L331.005 643.418L416.568 651.029L411.716 705.564C411.629 706.545 408.578 707.074 404.899 706.749" fill="#304F42"/>
<path fill-rule="evenodd" clip-rule="evenodd" d="M439.178 708.967H296.753L297.851 700.099C298.816 689.252 308.399 681.232 319.246 682.201L421.295 691.281C430.886 692.132 438.266 699.717 439.178 708.967" fill="#304F42"/>
<path fill-rule="evenodd" clip-rule="evenodd" d="M563.213 587.116C562.709 587.116 562.297 586.707 562.297 586.2V527.102C562.297 526.596 562.709 526.186 563.213 526.186C563.72 526.186 564.129 526.596 564.129 527.102V586.2C564.129 586.707 563.72 587.116 563.213 587.116" fill="#13322B"/>
<path fill-rule="evenodd" clip-rule="evenodd" d="M410.527 690.156C410.02 690.156 409.607 689.748 409.607 689.241V649.569C409.607 649.061 410.02 648.653 410.527 648.653C411.03 648.653 411.443 649.061 411.443 649.569V689.241C411.443 689.748 411.03 690.156 410.527 690.156" fill="#13322B"/>
<path fill-rule="evenodd" clip-rule="evenodd" d="M438.523 709.883C438.016 709.883 437.607 709.474 437.607 708.967C437.607 698.597 429.167 690.156 418.797 690.156H410.527C410.02 690.156 409.607 689.748 409.607 689.241C409.607 688.733 410.02 688.325 410.527 688.325H418.797C430.178 688.325 439.439 697.586 439.439 708.967C439.439 709.474 439.03 709.883 438.523 709.883" fill="#13322B"/>
<path fill-rule="evenodd" clip-rule="evenodd" d="M563.213 479.405C562.709 479.405 562.297 478.995 562.297 478.489V386.373C562.297 380.577 557.577 375.862 551.779 375.862H463.783C463.276 375.862 462.867 375.451 462.867 374.945C462.867 374.439 463.276 374.029 463.783 374.029H551.779C558.588 374.029 564.129 379.566 564.129 386.373V478.489C564.129 478.995 563.72 479.405 563.213 479.405" fill="#13322B"/>
<path fill-rule="evenodd" clip-rule="evenodd" d="M563.213 509.581C562.709 509.581 562.297 509.171 562.297 508.665V494.931C562.297 494.425 562.709 494.015 563.213 494.015C563.72 494.015 564.129 494.425 564.129 494.931V508.665C564.129 509.171 563.72 509.581 563.213 509.581" fill="#13322B"/>
<path fill-rule="evenodd" clip-rule="evenodd" d="M434.095 375.862H193.301C192.796 375.862 192.385 375.451 192.385 374.945C192.385 374.439 192.796 374.029 193.301 374.029H434.095C434.602 374.029 435.011 374.439 435.011 374.945C435.011 375.451 434.602 375.862 434.095 375.862" fill="#13322B"/>
<path fill-rule="evenodd" clip-rule="evenodd" d="M661.863 515.047L664.392 519.821L669.013 522.432L664.392 525.042L661.863 529.816L659.335 525.042L654.714 522.432L659.335 519.821L661.863 515.047" fill="white"/>
<path fill-rule="evenodd" clip-rule="evenodd" d="M339.529 267.568L342.057 272.342L346.678 274.952L342.057 277.563L339.529 282.337L337 277.563L332.379 274.952L337 272.342L339.529 267.568" fill="white"/>
<path fill-rule="evenodd" clip-rule="evenodd" d="M81.0368 446.611L83.5643 451.385L88.1862 453.996L83.5643 456.606L81.0368 461.38L78.5089 456.606L73.887 453.996L78.5089 451.385L81.0368 446.611" fill="white"/>
<path fill-rule="evenodd" clip-rule="evenodd" d="M248.45 515.288V515.288C248.45 520.688 244.073 525.065 238.673 525.065C233.273 525.065 228.896 520.688 228.896 515.288C228.896 509.888 233.273 505.511 238.673 505.511C244.073 505.511 248.45 509.888 248.45 515.288" fill="#FCCC6C"/>
<path fill-rule="evenodd" clip-rule="evenodd" d="M271.209 540.11V540.11C271.209 542.978 268.886 545.303 266.018 545.303C263.15 545.303 260.825 542.978 260.825 540.11C260.825 537.242 263.15 534.917 266.018 534.917C268.886 534.917 271.209 537.242 271.209 540.11" fill="white"/>
<path fill-rule="evenodd" clip-rule="evenodd" d="M240.376 532.131H256.272V516.234H240.376V532.131ZM257.219 534.023H239.43C238.907 534.023 238.484 533.599 238.484 533.077V515.288C238.484 514.766 238.907 514.342 239.43 514.342H257.219C257.741 514.342 258.165 514.766 258.165 515.288V533.077C258.165 533.599 257.741 534.023 257.219 534.023V534.023Z" fill="#FF6F60"/>
<path fill-rule="evenodd" clip-rule="evenodd" d="M138.735 312.516C137.887 312.516 137.029 312.709 136.257 313.095C135.753 313.348 134.555 314.05 134.332 315.118C134.102 316.222 134.958 317.44 135.716 318.266C137.215 319.899 139.05 321.137 141.029 321.911C142.722 320.246 143.735 318.294 143.326 316.073C143.009 314.349 141.914 313.475 141.052 313.045C140.345 312.692 139.544 312.516 138.735 312.516ZM128.472 330.689C127.983 330.689 127.532 330.37 127.385 329.876C127.206 329.275 127.549 328.643 128.15 328.465C130.36 327.808 135.383 326.13 139.067 323.529C137.204 322.633 135.488 321.375 134.043 319.801C132.417 318.029 131.766 316.298 132.109 314.654C132.413 313.197 133.526 311.922 135.242 311.064C137.375 309.997 139.99 309.978 142.065 311.013C143.939 311.947 145.18 313.598 145.559 315.662C146.054 318.345 145.136 320.656 143.472 322.615C144.955 322.895 146.472 322.921 147.954 322.668C151.689 322.03 154.598 319.685 156.146 316.064C156.393 315.487 157.06 315.22 157.637 315.467C158.213 315.713 158.481 316.381 158.234 316.957C156.373 321.311 152.857 324.134 148.336 324.907C146.083 325.292 143.761 325.129 141.553 324.483C137.681 327.672 132.026 329.681 128.797 330.641C128.689 330.673 128.58 330.689 128.472 330.689V330.689Z" fill="#13322B"/>
<path fill-rule="evenodd" clip-rule="evenodd" d="M614.803 486.041H713.578C712.916 477.768 707.504 463.659 706.497 462.033C706.085 461.375 705.729 460.764 705.434 460.291C700.82 452.974 688.099 448.095 682.358 456.87C678.342 463.004 681.68 474.956 673.327 478.01C663.744 481.513 661.333 468.914 660.482 462.453C659.433 454.514 659.607 446.38 657.268 438.653C656.277 436.34 654.623 433.696 651.981 433.365C649.336 433.365 647.023 435.348 646.028 437.665C643.094 444.784 642.288 452.465 641.217 460.024C640.347 466.155 639.155 479.682 631.002 480.442C626.672 480.842 622.755 473.115 618.743 476.539C616.2 478.71 616.336 483.251 614.803 486.041" fill="#DCE5F7"/>
<path fill-rule="evenodd" clip-rule="evenodd" d="M630.726 379.466C630.987 379.516 631.248 379.55 631.509 379.565C632.91 379.649 634.162 379.185 635.245 378.19C635.665 377.801 636.202 377.172 636.361 376.382C636.547 375.464 636.119 374.419 635.343 373.896C634.567 373.374 633.436 373.37 632.656 373.887C631.85 374.42 631.305 375.457 630.991 377.055C630.828 377.878 630.741 378.685 630.726 379.466ZM640.559 390.463C635.794 390.464 631.165 388.351 629.515 383.777C629.189 382.878 628.981 381.913 628.89 380.901C626.903 380.162 624.912 378.731 623.258 376.803C621.453 374.699 620.299 372.199 620.094 369.944C620.045 369.424 620.427 368.964 620.95 368.916C621.464 368.867 621.93 369.251 621.975 369.771C622.146 371.617 623.16 373.786 624.693 375.572C625.726 376.776 627.214 378.058 628.86 378.838C628.898 378.133 628.992 377.414 629.136 376.688C629.553 374.569 630.366 373.137 631.611 372.311C633.023 371.375 634.991 371.381 636.399 372.328C637.803 373.275 638.553 375.096 638.216 376.757C638.012 377.775 637.425 378.752 636.524 379.581C635.052 380.937 633.322 381.567 631.399 381.452C631.218 381.442 631.036 381.425 630.854 381.401C630.949 382.007 631.097 382.587 631.294 383.136C633.315 388.744 640.456 389.305 644.881 387.912C645.032 387.865 645.18 387.815 645.331 387.762C646.588 387.311 647.708 386.7 648.651 385.945C649.055 385.618 649.653 385.685 649.979 386.092C650.304 386.499 650.24 387.094 649.831 387.421C648.726 388.307 647.424 389.02 645.967 389.542C645.797 389.603 645.623 389.661 645.449 389.716C643.882 390.209 642.213 390.463 640.559 390.463V390.463Z" fill="#13322B"/>
<path fill-rule="evenodd" clip-rule="evenodd" d="M739.054 709.913H515.517C514.995 709.913 514.571 709.489 514.571 708.967C514.571 708.445 514.995 708.021 515.517 708.021H739.054C739.576 708.021 740 708.445 740 708.967C740 709.489 739.576 709.913 739.054 709.913" fill="#13322B"/>
<path fill-rule="evenodd" clip-rule="evenodd" d="M521.955 643.793L301.942 624.222L280.032 327.785L466.565 313.601C483.532 312.311 498.323 325.037 499.583 342.006L521.955 643.793" fill="#CFAA72"/>
<path fill-rule="evenodd" clip-rule="evenodd" d="M369.232 402.149C368.759 402.149 368.354 401.782 368.319 401.299C368.282 400.795 368.664 400.356 369.167 400.319L472.753 392.817C473.249 392.777 473.699 393.16 473.733 393.665C473.771 394.17 473.393 394.608 472.885 394.645L369.3 402.147C369.277 402.149 369.254 402.149 369.232 402.149" fill="white"/>
<path fill-rule="evenodd" clip-rule="evenodd" d="M323.44 433.124C322.963 433.124 322.561 432.756 322.524 432.274C322.49 431.769 322.868 431.33 323.371 431.294L474.99 420.313C475.489 420.274 475.932 420.655 475.97 421.16C476.004 421.665 475.626 422.104 475.122 422.14L323.504 433.121C323.481 433.123 323.458 433.124 323.44 433.124" fill="white"/>
<path fill-rule="evenodd" clip-rule="evenodd" d="M448.417 451.729C447.94 451.729 447.539 451.361 447.505 450.879C447.467 450.374 447.845 449.936 448.352 449.899L477.223 447.808C477.718 447.77 478.169 448.15 478.203 448.656C478.241 449.16 477.862 449.599 477.355 449.636L448.485 451.727C448.462 451.729 448.439 451.729 448.417 451.729" fill="white"/>
<path fill-rule="evenodd" clip-rule="evenodd" d="M325.673 460.619C325.196 460.619 324.794 460.252 324.76 459.769C324.723 459.264 325.101 458.826 325.608 458.789L427.884 451.382C428.384 451.344 428.827 451.724 428.865 452.229C428.902 452.734 428.52 453.173 428.017 453.209L325.741 460.617C325.718 460.619 325.695 460.619 325.673 460.619" fill="white"/>
<path fill-rule="evenodd" clip-rule="evenodd" d="M327.905 488.115C327.432 488.115 327.031 487.747 326.993 487.265C326.959 486.76 327.338 486.321 327.841 486.285L479.459 475.304C479.955 475.267 480.402 475.646 480.44 476.151C480.474 476.656 480.095 477.095 479.592 477.131L327.974 488.112C327.951 488.114 327.928 488.115 327.905 488.115" fill="white"/>
<path fill-rule="evenodd" clip-rule="evenodd" d="M330.142 515.61C329.665 515.61 329.264 515.242 329.23 514.76C329.192 514.255 329.571 513.816 330.078 513.78L481.692 502.798C482.192 502.764 482.639 503.141 482.673 503.646C482.711 504.151 482.332 504.59 481.825 504.627L330.21 515.608C330.188 515.61 330.165 515.61 330.142 515.61" fill="white"/>
<path fill-rule="evenodd" clip-rule="evenodd" d="M388.591 539.034C388.114 539.034 387.712 538.666 387.678 538.184C387.641 537.679 388.019 537.24 388.526 537.204L483.929 530.294C484.421 530.26 484.872 530.637 484.909 531.142C484.943 531.646 484.565 532.085 484.062 532.122L388.659 539.032C388.636 539.033 388.613 539.034 388.591 539.034" fill="white"/>
<path fill-rule="evenodd" clip-rule="evenodd" d="M332.375 543.106C331.902 543.106 331.497 542.738 331.463 542.256C331.429 541.751 331.807 541.312 332.311 541.275L363.259 539.034C363.762 539 364.205 539.376 364.239 539.882C364.277 540.386 363.899 540.825 363.391 540.862L332.443 543.103C332.421 543.105 332.398 543.106 332.375 543.106" fill="white"/>
<path fill-rule="evenodd" clip-rule="evenodd" d="M334.612 570.603C334.135 570.603 333.734 570.232 333.7 569.751C333.662 569.248 334.041 568.809 334.548 568.771L486.162 557.791C486.662 557.757 487.105 558.132 487.142 558.639C487.18 559.143 486.802 559.582 486.295 559.619L334.68 570.599C334.657 570.599 334.635 570.603 334.612 570.603" fill="white"/>
<path fill-rule="evenodd" clip-rule="evenodd" d="M403.715 593.255C403.241 593.255 402.836 592.884 402.802 592.403C402.765 591.9 403.147 591.461 403.65 591.423L488.399 585.284C488.891 585.25 489.341 585.628 489.379 586.132C489.413 586.639 489.035 587.078 488.531 587.112L403.783 593.251C403.76 593.251 403.737 593.255 403.715 593.255" fill="white"/>
<path fill-rule="evenodd" clip-rule="evenodd" d="M636.751 679.355C636.418 679.355 636.093 679.177 635.922 678.866C635.669 678.409 635.839 677.833 636.297 677.58L648.677 670.782C649.135 670.529 649.71 670.699 649.96 671.157C650.214 671.615 650.047 672.19 649.589 672.44L637.205 679.237C637.062 679.317 636.906 679.355 636.751 679.355" fill="#13322B"/>
<path fill-rule="evenodd" clip-rule="evenodd" d="M655.622 709.103C655.172 709.103 654.774 708.781 654.691 708.323L646.656 663.258C646.565 662.743 646.906 662.255 647.421 662.16C647.935 662.07 648.427 662.414 648.518 662.929L656.553 707.994C656.648 708.509 656.303 708.997 655.789 709.092C655.732 709.099 655.679 709.103 655.622 709.103" fill="#13322B"/>
<path fill-rule="evenodd" clip-rule="evenodd" d="M630.661 709.02C630.597 709.02 630.537 709.012 630.472 709.001C629.961 708.899 629.628 708.399 629.73 707.888L638.689 662.993C638.791 662.482 639.287 662.153 639.802 662.251C640.313 662.353 640.646 662.853 640.543 663.364L631.589 708.255C631.498 708.706 631.1 709.02 630.661 709.02" fill="#13322B"/>
<path fill-rule="evenodd" clip-rule="evenodd" d="M689.488 709.103C689.038 709.103 688.641 708.781 688.557 708.323L678.448 651.635C678.357 651.12 678.702 650.632 679.216 650.537C679.731 650.447 680.219 650.791 680.31 651.306L690.419 707.994C690.51 708.505 690.17 708.997 689.655 709.092C689.598 709.099 689.541 709.103 689.488 709.103" fill="#13322B"/>
<path fill-rule="evenodd" clip-rule="evenodd" d="M664.675 709.02C664.611 709.02 664.55 709.012 664.486 709.001C663.975 708.899 663.642 708.399 663.744 707.888L672.703 662.993C672.805 662.482 673.301 662.153 673.816 662.251C674.327 662.353 674.66 662.853 674.557 663.364L665.603 708.255C665.512 708.706 665.114 709.02 664.675 709.02" fill="#13322B"/>
<path fill-rule="evenodd" clip-rule="evenodd" d="M677.082 664.64C672.987 667.232 668.18 668.674 663.158 668.674H621.964C619.939 668.674 618.297 667.031 618.297 665.007C618.297 663.992 618.705 663.076 619.372 662.414C620.034 661.752 620.954 661.339 621.964 661.339H673.433C675.333 661.339 676.896 662.789 677.082 664.64" fill="white"/>
<path fill-rule="evenodd" clip-rule="evenodd" d="M686.082 655.026C683.913 659.019 680.787 662.297 677.082 664.639C672.987 667.232 668.18 668.674 663.158 668.674C655.823 668.674 649.551 665.805 644.987 661.339C636.369 652.899 637.8 639.83 645.846 628.548C657.011 612.883 670.519 603.659 686.99 607.826C705.706 612.565 695.022 638.581 686.082 655.026" fill="white"/>
<path fill-rule="evenodd" clip-rule="evenodd" d="M670.591 679.355C670.258 679.355 669.932 679.177 669.762 678.866C669.508 678.409 669.679 677.833 670.137 677.58L682.517 670.782C682.975 670.529 683.55 670.699 683.8 671.157C684.053 671.615 683.887 672.19 683.429 672.44L671.045 679.237C670.901 679.317 670.746 679.355 670.591 679.355" fill="#13322B"/>
<path fill-rule="evenodd" clip-rule="evenodd" d="M637.414 697.787L632.456 699.441L628.758 694.782L625.336 695.921L624.655 702.045L603.903 708.971L602.741 705.591L602.719 705.523C601.878 703.01 602.48 700.235 604.285 698.294L606.503 695.909L610.254 691.882L610.36 683.635L610.368 683.128L617.672 681.115L618.592 680.861L630.457 677.591L636.248 694.407L637.414 697.787" fill="#242863"/>
<path fill-rule="evenodd" clip-rule="evenodd" d="M582.284 696.364L577.523 694.202L577.985 688.272L574.7 686.78L570.037 690.804L550.114 681.762L551.563 678.492L551.594 678.427C552.687 676.017 555.015 674.393 557.661 674.196L560.908 673.961L566.4 673.56L572.084 667.588L572.436 667.221L579.158 670.714L580.006 671.157L590.929 676.834L589.127 680.895L582.284 696.364" fill="#242863"/>
<path fill-rule="evenodd" clip-rule="evenodd" d="M663.801 604.704C663.188 604.704 662.688 604.208 662.688 603.591V590.655C662.688 588.282 660.754 586.348 658.381 586.348C657.908 586.348 657.458 586.457 657.037 586.673C656.492 586.953 655.823 586.737 655.539 586.192C655.259 585.644 655.474 584.974 656.019 584.694C656.746 584.319 657.56 584.122 658.381 584.122C661.984 584.122 664.914 587.051 664.914 590.655V603.591C664.914 604.208 664.418 604.704 663.801 604.704" fill="#FCCC6C"/>
<path fill-rule="evenodd" clip-rule="evenodd" d="M650.327 604.704C649.71 604.704 649.211 604.208 649.211 603.591V586.348H644.904C644.431 586.348 643.98 586.457 643.564 586.673C643.019 586.953 642.345 586.737 642.065 586.192C641.781 585.644 641.997 584.974 642.546 584.694C643.269 584.319 644.086 584.122 644.904 584.122H651.44V603.591C651.44 604.208 650.94 604.704 650.327 604.704" fill="#FCCC6C"/>
<path fill-rule="evenodd" clip-rule="evenodd" d="M622.941 630.376C622.263 630.826 621.506 631.174 620.704 631.394C618.456 632.003 616.052 631.568 614.164 630.206L569.916 622.681C566.46 620.191 565.681 615.369 568.171 611.914C570.661 608.458 575.483 607.679 578.939 610.169L615.45 612.118L618.104 606.078C619.814 602.175 624.367 600.404 628.266 602.119C632.168 603.833 633.939 608.383 632.225 612.281L625.734 627.053C625.136 628.423 624.155 629.57 622.941 630.376" fill="#FF6F60"/>
<path fill-rule="evenodd" clip-rule="evenodd" d="M632.225 612.281L618.104 606.078L621.718 597.846L635.843 604.053L632.225 612.281" fill="#242863"/>
<path fill-rule="evenodd" clip-rule="evenodd" d="M634.779 614.775C634.109 615.222 633.235 615.328 632.44 614.987L617.755 608.697C616.503 608.159 615.924 606.71 616.461 605.457C616.998 604.2 618.448 603.621 619.701 604.159L634.386 610.449C635.638 610.986 636.217 612.44 635.68 613.692C635.483 614.15 635.165 614.518 634.779 614.775" fill="#242863"/>
<path fill-rule="evenodd" clip-rule="evenodd" d="M633.054 607.372C630.938 608.776 628.175 609.109 625.677 608.012C621.779 606.297 620.004 601.748 621.718 597.846L624.523 591.465C626.237 587.566 630.786 585.791 634.685 587.506C638.587 589.22 640.358 593.77 638.644 597.672L635.839 604.053C635.226 605.453 634.242 606.581 633.054 607.372" fill="#242863"/>
<path fill-rule="evenodd" clip-rule="evenodd" d="M669.868 628.332H629.98L624.488 597.509C623.463 591.737 627.898 586.442 633.757 586.442H666.091C671.953 586.442 676.389 591.737 675.36 597.509L669.868 628.332" fill="#242863"/>
<path fill-rule="evenodd" clip-rule="evenodd" d="M672.68 647.271L629.117 632.851L626.74 610.332L641.032 601.422H655.073L673.108 610.332L672.68 647.271" fill="#FCCC6C"/>
<path fill-rule="evenodd" clip-rule="evenodd" d="M650.736 590.848C648.136 591.181 645.759 589.345 645.426 586.745L644.991 583.369L644.771 581.632L644.003 575.667L643.64 572.832C643.307 570.232 645.142 567.855 647.742 567.522C647.947 567.495 648.147 567.48 648.352 567.48C650.301 567.48 652.034 568.676 652.746 570.448C652.893 570.819 652.999 571.208 653.052 571.625L654.339 581.632L654.839 585.534C655.172 588.134 653.336 590.511 650.736 590.848" fill="#FF6F60"/>
<path fill-rule="evenodd" clip-rule="evenodd" d="M652.087 575.958C651.194 580.076 649.188 583.047 644.991 583.369L644.771 581.632L644.003 575.667L643.64 572.832C643.307 570.232 645.142 567.855 647.742 567.522C647.947 567.495 648.147 567.48 648.352 567.48C650.301 567.48 652.034 568.676 652.746 570.448C652.893 570.819 652.999 571.208 653.052 571.625L652.087 575.958" fill="#13322B"/>
<path fill-rule="evenodd" clip-rule="evenodd" d="M639.333 578.536V578.536C636.782 576.545 636.327 572.866 638.314 570.319L641.301 566.489C643.92 563.128 648.768 562.53 652.125 565.149C655.486 567.768 656.088 572.616 653.469 575.974L652.772 576.867C649.521 581.038 643.503 581.783 639.333 578.536" fill="#FF6F60"/>
<path fill-rule="evenodd" clip-rule="evenodd" d="M640.343 568.207L635.574 571.784C635.033 572.192 635.192 573.04 635.839 573.226L639.075 574.142L640.343 568.207" fill="#FF6F60"/>
<path fill-rule="evenodd" clip-rule="evenodd" d="M648.431 562.795C647.314 565.198 644.461 566.243 642.057 565.13C639.654 564.014 638.609 561.16 639.722 558.757C640.839 556.353 643.692 555.309 646.096 556.421C648.499 557.538 649.544 560.392 648.431 562.795" fill="#FCCC6C"/>
<path fill-rule="evenodd" clip-rule="evenodd" d="M653.026 564.85C652.239 566.549 650.221 567.287 648.522 566.5C646.823 565.713 646.081 563.696 646.872 561.992C647.659 560.293 649.676 559.555 651.376 560.342C653.079 561.133 653.817 563.151 653.026 564.85" fill="#FCCC6C"/>
<path fill-rule="evenodd" clip-rule="evenodd" d="M653.79 570.569L642.444 565.308C640.93 564.604 640.271 562.81 640.975 561.292C641.675 559.778 643.473 559.12 644.987 559.824L656.334 565.085C657.848 565.789 658.506 567.586 657.802 569.1C657.102 570.614 655.304 571.273 653.79 570.569" fill="#FCCC6C"/>
<path fill-rule="evenodd" clip-rule="evenodd" d="M654.006 577.283L649.108 575.012L650.796 565.819L657.813 569.078L654.006 577.283" fill="#FCCC6C"/>
<path fill-rule="evenodd" clip-rule="evenodd" d="M655.281 576.833C654.434 578.657 652.269 579.448 650.448 578.604C648.624 577.756 647.829 575.591 648.677 573.771C649.521 571.946 651.686 571.152 653.51 571.999C655.334 572.843 656.125 575.008 655.281 576.833" fill="#FF6F60"/>
<path fill-rule="evenodd" clip-rule="evenodd" d="M689.874 659.704C686.71 659.704 683.739 657.744 682.611 654.591L667.268 611.736C665.833 607.724 667.919 603.307 671.931 601.873C675.939 600.438 680.356 602.524 681.79 606.536L697.134 649.391C698.572 653.403 696.483 657.816 692.475 659.254C691.615 659.56 690.737 659.704 689.874 659.704" fill="#FF6F60"/>
<path fill-rule="evenodd" clip-rule="evenodd" d="M667.291 611.793L664.191 603.356L678.671 598.039L681.767 606.475L667.291 611.793" fill="#242863"/>
<path fill-rule="evenodd" clip-rule="evenodd" d="M671.431 608.413C668.29 608.413 665.338 606.475 664.191 603.356L661.787 596.812C660.319 592.812 662.37 588.38 666.367 586.911C670.367 585.447 674.799 587.494 676.268 591.495L678.671 598.039C680.14 602.035 678.088 606.467 674.088 607.936C673.214 608.258 672.313 608.413 671.431 608.413" fill="#242863"/>
<path fill-rule="evenodd" clip-rule="evenodd" d="M667.344 614.404C666.341 614.404 665.398 613.791 665.031 612.796C664.554 611.52 665.205 610.097 666.484 609.624L680.889 604.265C682.169 603.792 683.588 604.443 684.061 605.718C684.538 606.997 683.887 608.42 682.608 608.893L668.203 614.249C667.919 614.355 667.631 614.404 667.344 614.404" fill="#242863"/>
<path fill-rule="evenodd" clip-rule="evenodd" d="M645.797 613.045C645.797 616.399 643.079 619.116 639.726 619.116C636.373 619.116 633.651 616.399 633.651 613.045C633.651 609.692 636.373 606.971 639.726 606.971C643.079 606.971 645.797 609.692 645.797 613.045" fill="white"/>
<path fill-rule="evenodd" clip-rule="evenodd" d="M658.139 613.045C658.139 616.399 655.418 619.116 652.064 619.116C648.711 619.116 645.994 616.399 645.994 613.045C645.994 609.692 648.711 606.971 652.064 606.971C655.418 606.971 658.139 609.692 658.139 613.045" fill="white"/>
<path fill-rule="evenodd" clip-rule="evenodd" d="M645.32 620.289L637.943 612.913L645.32 605.533L652.7 612.913L645.32 620.289" fill="#13322B"/>
<path fill-rule="evenodd" clip-rule="evenodd" d="M579.351 613.571C580.354 614.408 580.642 615.865 579.968 617.035L574.321 626.826C573.568 628.135 571.895 628.582 570.589 627.829C569.28 627.079 568.833 625.406 569.586 624.097L575.233 614.306C575.987 612.996 577.659 612.55 578.965 613.303C579.105 613.382 579.234 613.473 579.351 613.571" fill="#FF6F60"/>
<path fill-rule="evenodd" clip-rule="evenodd" d="M573.848 613.053C574.881 613.912 575.146 615.426 574.416 616.599L567.444 627.761C566.646 629.04 564.958 629.43 563.678 628.631C562.395 627.829 562.009 626.144 562.808 624.865L569.779 613.704C570.578 612.425 572.266 612.035 573.545 612.833C573.651 612.902 573.753 612.973 573.848 613.053" fill="#FF6F60"/>
<path fill-rule="evenodd" clip-rule="evenodd" d="M569.885 610.578C570.983 611.494 571.195 613.117 570.336 614.287L563.977 622.973C563.088 624.192 561.377 624.456 560.158 623.567C558.944 622.666 558.679 620.963 559.568 619.744L565.926 611.058C566.82 609.843 568.53 609.579 569.745 610.468C569.795 610.506 569.84 610.54 569.885 610.578" fill="#FF6F60"/>
<path fill-rule="evenodd" clip-rule="evenodd" d="M698.072 660.404C697.069 660.404 696.1 659.844 695.624 658.883L690.283 648.104C689.613 646.753 690.166 645.114 691.521 644.444C692.872 643.774 694.511 644.327 695.181 645.678L700.521 656.457C701.191 657.808 700.638 659.447 699.283 660.117C698.894 660.31 698.481 660.404 698.072 660.404" fill="#FF6F60"/>
<path fill-rule="evenodd" clip-rule="evenodd" d="M694.083 666.01C692.887 666.01 691.79 665.219 691.453 664.007L687.933 651.328C687.528 649.875 688.379 648.369 689.833 647.964C691.29 647.563 692.793 648.414 693.197 649.867L696.717 662.546C697.122 664 696.271 665.506 694.817 665.911C694.571 665.979 694.325 666.01 694.083 666.01" fill="#FF6F60"/>
<path fill-rule="evenodd" clip-rule="evenodd" d="M688.168 665.139C686.892 665.139 685.749 664.238 685.492 662.94L683.384 652.384C683.085 650.905 684.046 649.466 685.526 649.167C687.006 648.872 688.448 649.833 688.743 651.313L690.851 661.869C691.146 663.349 690.185 664.787 688.705 665.086C688.523 665.12 688.345 665.139 688.168 665.139" fill="#FF6F60"/>
<path fill-rule="evenodd" clip-rule="evenodd" d="M682.127 658.171C681.885 658.171 681.643 658.141 681.4 658.073C679.943 657.672 679.088 656.169 679.489 654.712L681.34 648.005C681.741 646.548 683.244 645.693 684.701 646.098C686.154 646.495 687.009 648.002 686.608 649.455L684.757 656.165C684.424 657.376 683.327 658.171 682.127 658.171" fill="#FF6F60"/>
<path fill-rule="evenodd" clip-rule="evenodd" d="M650.327 604.704H639.741V589.284C639.741 587.343 640.816 585.583 642.546 584.694C643.091 584.41 643.761 584.625 644.045 585.17C644.325 585.719 644.109 586.389 643.564 586.673C642.58 587.176 641.967 588.179 641.967 589.284V602.478H650.327C650.94 602.478 651.44 602.978 651.44 603.591C651.44 604.208 650.94 604.704 650.327 604.704" fill="#FCCC6C"/>
<path fill-rule="evenodd" clip-rule="evenodd" d="M654.331 604.704C653.714 604.704 653.215 604.208 653.215 603.591V589.284C653.215 587.343 654.29 585.583 656.019 584.694C656.564 584.41 657.238 584.625 657.518 585.17C657.802 585.719 657.586 586.389 657.037 586.673C656.053 587.176 655.444 588.179 655.444 589.284V603.591C655.444 604.208 654.944 604.704 654.331 604.704" fill="#FCCC6C"/>
<path fill-rule="evenodd" clip-rule="evenodd" d="M658.563 661.509H641.554L642.97 648.762H658.563V661.509" fill="#13322B"/>
<path fill-rule="evenodd" clip-rule="evenodd" d="M641.88 661.494C640.26 661.494 638.613 661.18 637.031 660.51L600.232 644.966C593.889 642.287 590.918 634.971 593.597 628.624C596.277 622.28 603.593 619.309 609.94 621.989L646.735 637.529C653.083 640.213 656.054 647.529 653.374 653.872C651.36 658.633 646.739 661.494 641.88 661.494" fill="#242863"/>
<path fill-rule="evenodd" clip-rule="evenodd" d="M672.68 647.271C672.654 647.911 672.578 648.547 672.461 649.175C671.424 654.735 667.079 659.628 661.576 661.082C660.497 661.366 659.437 661.498 658.4 661.51C652.231 661.555 646.762 657.214 641.478 654.356C636.002 651.4 630.529 648.441 625.052 645.481C621.892 643.774 618.755 641.753 615.462 640.303C609.489 637.669 606.783 630.694 609.418 624.718C612.048 618.745 619.023 616.039 624.999 618.67C634.333 622 643.67 625.327 653.007 628.658C657.17 630.141 661.856 631.205 665.595 633.703C666.167 634.077 666.712 634.49 667.234 634.94C670.727 637.983 672.896 642.608 672.68 647.271" fill="#CFAA72"/>
<path fill-rule="evenodd" clip-rule="evenodd" d="M627.698 636.976L592.446 678.42L573.716 664.53C573.776 664.45 573.84 664.375 573.905 664.299L609.686 621.667C613.914 616.694 621.374 616.092 626.347 620.316C631.32 624.547 631.922 632.003 627.698 636.976" fill="#CFAA72"/>
<path fill-rule="evenodd" clip-rule="evenodd" d="M632.191 675.426L610.125 681.792L592.473 635.917C590.172 629.808 593.257 622.992 599.369 620.694C605.478 618.393 612.294 621.478 614.595 627.59L632.191 675.426" fill="#CFAA72"/>
<path fill-rule="evenodd" clip-rule="evenodd" d="M589.086 644.758C588.855 644.758 588.624 644.675 588.442 644.504C588.056 644.149 588.037 643.551 588.393 643.168L608.979 621.039C611.923 617.587 616.525 615.952 620.991 616.766C621.037 616.773 621.082 616.785 621.128 616.8L653.31 627.761C653.805 627.931 654.07 628.468 653.9 628.96C653.734 629.456 653.196 629.721 652.7 629.551L620.586 618.613C616.798 617.947 612.9 619.347 610.409 622.28C610.398 622.292 610.39 622.299 610.379 622.311L589.778 644.459C589.593 644.656 589.339 644.758 589.086 644.758" fill="white"/>
<path fill-rule="evenodd" clip-rule="evenodd" d="M602.344 668.784C602.128 668.784 601.908 668.712 601.731 668.561C601.333 668.22 601.284 667.622 601.625 667.224L622.974 642.165C623.315 641.768 623.909 641.719 624.307 642.059C624.704 642.396 624.753 642.994 624.416 643.392L603.067 668.455C602.877 668.674 602.612 668.784 602.344 668.784" fill="white"/>
<path fill-rule="evenodd" clip-rule="evenodd" d="M590.925 680.316C590.301 680.316 589.669 680.119 589.127 679.718L572.792 667.603C571.452 666.608 571.172 664.719 572.164 663.379C573.159 662.036 575.052 661.755 576.392 662.751L592.727 674.866C594.066 675.861 594.347 677.754 593.355 679.094C592.761 679.892 591.849 680.316 590.925 680.316" fill="white"/>
<path fill-rule="evenodd" clip-rule="evenodd" d="M611.298 684.812C609.997 684.812 608.793 683.961 608.403 682.648C607.93 681.047 608.846 679.366 610.447 678.897L630.045 673.11C631.642 672.637 633.322 673.549 633.795 675.15C634.268 676.751 633.356 678.431 631.755 678.901L612.158 684.688C611.87 684.775 611.582 684.812 611.298 684.812" fill="white"/>
<path fill-rule="evenodd" clip-rule="evenodd" d="M573.954 608.545C574.295 609.109 574.431 609.798 574.291 610.498C573.992 611.978 572.554 612.936 571.074 612.637C570.536 612.527 565.821 611.573 564.973 611.373C563.504 611.021 562.6 609.544 562.952 608.076C563.304 606.611 564.776 605.707 566.244 606.055C566.816 606.191 570.09 606.861 572.153 607.277C572.936 607.436 573.572 607.913 573.954 608.545" fill="#FF6F60"/>
<path fill-rule="evenodd" clip-rule="evenodd" d="M616.571 634.093H512.361C511.838 634.093 511.414 633.669 511.414 633.146C511.414 632.624 511.838 632.2 512.361 632.2H616.571C617.093 632.2 617.517 632.624 617.517 633.146C617.517 633.669 617.093 634.093 616.571 634.093" fill="#13322B"/>
<path fill-rule="evenodd" clip-rule="evenodd" d="M578.738 667.031C578.431 667.031 578.132 666.884 577.947 666.611L566.873 649.989C566.6 649.58 566.687 649.027 567.073 648.721L587.636 632.408C588.045 632.079 588.639 632.151 588.964 632.56C589.29 632.968 589.222 633.563 588.813 633.888L568.932 649.663L579.521 665.563C579.813 665.998 579.696 666.585 579.26 666.873C579.098 666.982 578.916 667.031 578.738 667.031" fill="#13322B"/>
<path fill-rule="evenodd" clip-rule="evenodd" d="M528.45 708.895C528.272 708.895 528.086 708.842 527.924 708.736C527.492 708.445 527.375 707.854 527.666 707.423L566.385 649.667L546.272 633.892C545.86 633.57 545.788 632.976 546.11 632.563C546.431 632.155 547.025 632.079 547.438 632.405L568.243 648.721C568.633 649.023 568.72 649.58 568.447 649.989L529.237 708.475C529.055 708.747 528.756 708.895 528.45 708.895" fill="#13322B"/>
<path fill-rule="evenodd" clip-rule="evenodd" d="M522.882 632.2H573.939L561.245 595.582H510.188L522.882 632.2ZM575.271 634.092H522.208C521.807 634.092 521.448 633.839 521.315 633.457L507.966 594.946C507.864 594.659 507.91 594.337 508.087 594.087C508.265 593.838 508.553 593.69 508.86 593.69H561.918C562.323 593.69 562.683 593.947 562.812 594.326L576.164 632.836C576.263 633.127 576.217 633.445 576.039 633.695C575.861 633.945 575.574 634.092 575.271 634.092V634.092Z" fill="#13322B"/>
<path fill-rule="evenodd" clip-rule="evenodd" d="M453.579 695.754C457.746 699.978 462.882 701.666 465.051 699.524C467.219 697.385 465.599 692.227 461.436 688.003C458.552 685.081 454.169 684.4 451.74 684.256C450.74 684.195 449.915 685.009 449.961 686.008C450.074 688.442 450.695 692.832 453.579 695.754" fill="white"/>
<path fill-rule="evenodd" clip-rule="evenodd" d="M470.395 709.281C469.899 709.281 469.487 708.899 469.452 708.399C469.422 707.953 466.531 663.599 477.741 631.693C477.915 631.201 478.456 630.94 478.948 631.114C479.44 631.284 479.702 631.825 479.528 632.321C468.449 663.852 471.307 707.828 471.337 708.267C471.375 708.789 470.982 709.239 470.459 709.277C470.436 709.277 470.414 709.281 470.395 709.281" fill="#13322B"/>
<path fill-rule="evenodd" clip-rule="evenodd" d="M466.198 709.281C466.194 709.281 466.19 709.281 466.186 709.281C465.664 709.273 465.248 708.846 465.251 708.32C465.501 687.931 459.809 675.68 455.502 668.243C455.241 667.788 455.396 667.209 455.85 666.948C456.3 666.687 456.879 666.842 457.141 667.293C461.557 674.927 467.397 687.488 467.144 708.346C467.14 708.865 466.716 709.281 466.198 709.281" fill="#13322B"/>
<path fill-rule="evenodd" clip-rule="evenodd" d="M478.517 644.845C477.699 648.338 475.584 650.833 473.79 650.412C471.992 649.992 471.197 646.821 472.015 643.327C472.579 640.909 474.626 639.172 475.834 638.331C476.329 637.983 477.011 638.146 477.306 638.676C478.014 639.963 479.081 642.427 478.517 644.845" fill="white"/>
<path fill-rule="evenodd" clip-rule="evenodd" d="M491.242 634.857C492.116 633.233 491.363 631.564 489.569 631.144C487.771 630.724 485.587 631.712 484.713 633.336L478.759 644.395C477.983 645.837 476.333 646.582 474.736 646.208C473.139 645.837 471.988 644.44 471.932 642.798L471.489 630.247C471.424 628.404 469.899 626.553 468.105 626.133C466.319 626.198 464.922 627.696 464.987 629.483C464.987 629.483 465.543 646.056 465.581 646.389L465.6 646.545C465.963 649.251 467.954 651.578 470.77 652.237L475.61 653.365C478.426 654.023 481.242 652.816 482.767 650.549L482.79 650.56L491.242 634.857" fill="#FF6F60"/>
<path fill-rule="evenodd" clip-rule="evenodd" d="M451.199 657.278V657.278L455.044 649.78C455.949 648.02 454.851 645.897 452.894 645.61C450.937 645.326 449.284 647.052 449.647 648.993L451.199 657.278" fill="#FCCC6C"/>
<path fill-rule="evenodd" clip-rule="evenodd" d="M447.891 659.742V659.742L439.609 661.294C437.664 661.657 435.942 659.999 436.226 658.043C436.51 656.086 438.637 654.992 440.393 655.893L447.891 659.742" fill="#FCCC6C"/>
<path fill-rule="evenodd" clip-rule="evenodd" d="M450.252 662.906V662.906L446.403 670.404C445.502 672.164 446.596 674.287 448.553 674.575C450.51 674.858 452.164 673.133 451.8 671.191L450.252 662.906" fill="#FCCC6C"/>
<path fill-rule="evenodd" clip-rule="evenodd" d="M453.556 660.442V660.442L461.841 658.89C463.783 658.527 465.509 660.185 465.221 662.142C464.937 664.098 462.814 665.192 461.054 664.291L453.556 660.442" fill="#FCCC6C"/>
<path fill-rule="evenodd" clip-rule="evenodd" d="M449.068 657.766V657.766L446.487 649.746C445.881 647.862 443.606 647.135 442.021 648.316C440.435 649.5 440.484 651.889 442.115 653.005L449.068 657.766" fill="#FCCC6C"/>
<path fill-rule="evenodd" clip-rule="evenodd" d="M448.474 661.846V661.846L443.712 668.803C442.596 670.434 440.204 670.479 439.023 668.897C437.842 667.312 438.569 665.033 440.454 664.428L448.474 661.846" fill="#FCCC6C"/>
<path fill-rule="evenodd" clip-rule="evenodd" d="M452.379 662.418V662.418L454.961 670.438C455.566 672.323 457.845 673.049 459.427 671.868C461.012 670.684 460.963 668.296 459.332 667.179L452.379 662.418" fill="#FCCC6C"/>
<path fill-rule="evenodd" clip-rule="evenodd" d="M452.974 658.338V658.338L457.735 651.381C458.851 649.75 461.243 649.705 462.424 651.287C463.605 652.873 462.878 655.151 460.997 655.757L452.974 658.338" fill="#FCCC6C"/>
<path fill-rule="evenodd" clip-rule="evenodd" d="M288.51 708.967V708.967C272.296 708.967 259.152 695.822 259.152 679.608V658.641H317.864V679.608C317.864 695.822 304.724 708.967 288.51 708.967" fill="#CFAA72"/>
<path fill-rule="evenodd" clip-rule="evenodd" d="M308.766 667.607C308.361 667.607 308.032 667.277 308.032 666.873V659.379H280.176C279.767 659.379 279.438 659.046 279.438 658.641C279.438 658.236 279.767 657.903 280.176 657.903H308.766C309.175 657.903 309.504 658.236 309.504 658.641V666.873C309.504 667.277 309.175 667.607 308.766 667.607" fill="#13322B"/>
<path fill-rule="evenodd" clip-rule="evenodd" d="M279.411 709.701C262.817 709.701 249.317 696.205 249.317 679.608V658.641C249.317 658.236 249.647 657.903 250.054 657.903H267.606C268.011 657.903 268.341 658.236 268.341 658.641C268.341 659.046 268.011 659.379 267.606 659.379H250.79V679.608C250.79 695.391 263.629 708.229 279.411 708.229C289.914 708.229 299.557 702.491 304.576 693.252C304.773 692.893 305.219 692.76 305.575 692.957C305.931 693.15 306.063 693.597 305.87 693.953C300.594 703.668 290.455 709.701 279.411 709.701" fill="#13322B"/>
<path fill-rule="evenodd" clip-rule="evenodd" d="M315.321 690.789H309.985C309.576 690.789 309.247 690.459 309.247 690.054C309.247 689.646 309.576 689.316 309.985 689.316H315.321C321.589 689.316 327.417 685.675 330.169 680.044C331.089 678.159 330.975 675.975 329.866 674.196C328.753 672.421 326.842 671.357 324.745 671.357H315.65C315.242 671.357 314.912 671.028 314.912 670.623C314.912 670.214 315.242 669.885 315.65 669.885H324.745C327.353 669.885 329.734 671.206 331.115 673.416C332.493 675.627 332.637 678.348 331.494 680.691C328.496 686.826 322.149 690.789 315.321 690.789" fill="#13322B"/>
<path fill-rule="evenodd" clip-rule="evenodd" d="M264.217 643.596C263.81 643.596 263.48 643.267 263.48 642.858C263.48 639.951 266.301 638.543 268.791 637.298C271.1 636.14 273.283 635.05 273.283 633.052C273.283 631.057 271.1 629.967 268.791 628.809C266.301 627.564 263.48 626.156 263.48 623.249C263.48 620.342 266.301 618.931 268.791 617.689C271.103 616.531 273.283 615.441 273.283 613.443C273.283 611.448 271.103 610.358 268.791 609.2C266.301 607.955 263.48 606.547 263.48 603.64C263.48 600.734 266.301 599.326 268.791 598.08C271.103 596.926 273.283 595.832 273.283 593.838C273.283 593.429 273.616 593.1 274.021 593.1C274.426 593.1 274.759 593.429 274.759 593.838C274.759 596.744 271.936 598.152 269.449 599.397C267.137 600.552 264.953 601.646 264.953 603.64C264.953 605.639 267.137 606.729 269.449 607.883C271.936 609.128 274.759 610.54 274.759 613.443C274.759 616.35 271.936 617.761 269.449 619.006C267.137 620.161 264.953 621.251 264.953 623.249C264.953 625.244 267.137 626.338 269.449 627.492C271.936 628.737 274.759 630.149 274.759 633.052C274.759 635.958 271.936 637.37 269.449 638.615C267.137 639.77 264.953 640.864 264.953 642.858C264.953 643.267 264.623 643.596 264.217 643.596" fill="#13322B"/>
<path fill-rule="evenodd" clip-rule="evenodd" d="M293.517 649.042C293.112 649.042 292.783 648.713 292.783 648.304C292.783 645.398 295.602 643.99 298.093 642.745C300.401 641.59 302.585 640.496 302.585 638.502C302.585 636.503 300.405 635.413 298.093 634.255C295.602 633.014 292.783 631.602 292.783 628.695C292.783 625.789 295.602 624.381 298.093 623.136C300.405 621.977 302.585 620.887 302.585 618.893C302.585 616.894 300.401 615.804 298.093 614.646C295.602 613.405 292.783 611.993 292.783 609.086C292.783 608.682 293.112 608.352 293.517 608.352C293.926 608.352 294.255 608.682 294.255 609.086C294.255 611.085 296.439 612.175 298.751 613.333C301.238 614.574 304.061 615.986 304.061 618.893C304.061 621.796 301.238 623.207 298.751 624.453C296.439 625.607 294.255 626.701 294.255 628.695C294.255 630.69 296.439 631.784 298.751 632.938C301.238 634.183 304.061 635.595 304.061 638.502C304.061 641.405 301.238 642.816 298.751 644.062C296.439 645.216 294.255 646.31 294.255 648.304C294.255 648.713 293.926 649.042 293.517 649.042" fill="#13322B"/>
<path fill-rule="evenodd" clip-rule="evenodd" d="M488.388 709.913H0.946195C0.423517 709.913 0 709.489 0 708.967C0 708.445 0.423517 708.021 0.946195 708.021H488.388C488.91 708.021 489.334 708.445 489.334 708.967C489.334 709.489 488.91 709.913 488.388 709.913" fill="#13322B"/>
<path fill-rule="evenodd" clip-rule="evenodd" d="M160.267 633.328C156.821 633.328 153.873 630.713 153.529 627.212L152.292 614.616C151.926 610.892 154.65 607.576 158.375 607.209C162.101 606.85 165.418 609.567 165.784 613.291L167.021 625.887C167.387 629.615 164.663 632.931 160.937 633.298C160.712 633.32 160.488 633.328 160.267 633.328" fill="#FF6F60"/>
<path fill-rule="evenodd" clip-rule="evenodd" d="M159.03 620.732C155.585 620.732 152.636 618.117 152.292 614.616L151.437 605.907C151.071 602.183 153.794 598.864 157.52 598.5C161.245 598.137 164.563 600.858 164.928 604.583L165.784 613.291C166.15 617.019 163.426 620.335 159.7 620.702C159.475 620.721 159.251 620.732 159.03 620.732" fill="white"/>
<path fill-rule="evenodd" clip-rule="evenodd" d="M158.174 612.023C154.729 612.023 151.78 609.408 151.437 605.907L136.901 457.887C136.535 454.161 139.258 450.845 142.984 450.479C146.712 450.111 150.027 452.836 150.392 456.562L164.928 604.583C165.294 608.311 162.571 611.626 158.845 611.993C158.62 612.012 158.396 612.023 158.174 612.023" fill="#CFAA72"/>
<path fill-rule="evenodd" clip-rule="evenodd" d="M143.325 457.461C141.564 457.461 140.057 456.123 139.882 454.334L139.32 448.609C139.132 446.705 140.525 445.01 142.429 444.823C144.338 444.637 146.029 446.028 146.215 447.932L146.778 453.657C146.965 455.561 145.572 457.257 143.668 457.444C143.553 457.455 143.439 457.461 143.325 457.461" fill="#13322B"/>
<path fill-rule="evenodd" clip-rule="evenodd" d="M105.025 562.042C106.536 565.618 110.661 567.291 114.237 565.781C117.813 564.267 119.487 560.145 117.976 556.569C116.464 552.992 105.736 547.692 105.736 547.692C102.739 550.161 103.514 558.465 105.025 562.042" fill="#CFAA72"/>
<path fill-rule="evenodd" clip-rule="evenodd" d="M61.9978 576.685C63.0511 576.685 64.1203 576.45 65.1305 575.958L92.4123 562.643C95.9639 560.91 97.4381 556.626 95.7051 553.075C93.9716 549.524 89.6869 548.05 86.1364 549.783L58.8545 563.098C55.3029 564.831 53.8291 569.112 55.5622 572.666C56.8021 575.205 59.3488 576.685 61.9978 576.685" fill="#FF6F60"/>
<path fill-rule="evenodd" clip-rule="evenodd" d="M92.4118 562.643L90.9638 563.351L65.13 575.958C64.1198 576.45 63.0518 576.685 61.9988 576.685C59.348 576.685 56.8019 575.205 55.5632 572.666C53.829 569.115 55.3024 564.831 58.8548 563.098L86.1366 549.782C89.6887 548.05 93.9711 549.524 95.7057 553.076C97.4376 556.629 95.9642 560.91 92.4118 562.643" fill="#FF6F60"/>
<path fill-rule="evenodd" clip-rule="evenodd" d="M90.9638 563.351L79.9834 568.71C76.7792 559.631 84.6019 553.437 84.6019 553.437L90.9638 563.351" fill="#242863"/>
<path fill-rule="evenodd" clip-rule="evenodd" d="M61.3056 698.438C62.4493 698.438 63.6752 698.298 64.9685 698.014C65.4787 697.904 65.8026 697.401 65.691 696.89C65.5797 696.379 65.0782 696.053 64.5646 696.167C62.8255 696.545 61.245 696.64 59.8673 696.451C58.5446 696.269 57.444 694.967 57.4133 693.551C57.3959 692.741 57.8448 691.939 58.5567 691.508C58.9053 691.296 59.6111 691.004 60.4188 691.447C62.2722 692.454 63.8213 694.308 64.9643 695.807C65.2815 696.223 65.8753 696.303 66.2905 695.989C66.7061 695.671 66.7863 695.077 66.4699 694.66C65.213 693.01 63.4924 690.966 61.3245 689.782C60.1262 689.131 58.7584 689.169 57.573 689.892C56.2953 690.667 55.4899 692.121 55.5217 693.593C55.5716 695.936 57.3671 698.017 59.6085 698.324C60.1512 698.4 60.7174 698.438 61.3056 698.438" fill="#13322B"/>
<path fill-rule="evenodd" clip-rule="evenodd" d="M114.483 688.972H126.23L120.747 622.216L97.3174 613.927L114.483 688.972" fill="#FF6F60"/>
<path fill-rule="evenodd" clip-rule="evenodd" d="M116.116 592.29H79.1394L85.3593 568.922L83.8961 564.01C82.5832 559.604 83.1588 554.813 85.6197 550.93C85.7045 550.797 85.7908 550.665 85.8782 550.534C88.6445 546.416 92.9012 543.808 97.6281 543.808C101.492 543.808 105.04 545.549 107.716 548.432C108.265 549.024 108.78 549.665 109.25 550.348C111.076 552.992 112.28 556.281 112.584 559.911L116.116 592.29" fill="#CFAA72"/>
<path fill-rule="evenodd" clip-rule="evenodd" d="M72.8713 597.993C73.3558 591.669 75.1865 585.674 80.8394 580.599C89.8389 584.716 98.2067 582.824 115.84 579.834L118.68 600.404L72.8713 597.993" fill="#829A74"/>
<path fill-rule="evenodd" clip-rule="evenodd" d="M96.4086 583.308C102.593 583.308 109.64 582.642 117.502 581.306C118.316 581.17 118.864 580.398 118.726 579.584C118.588 578.77 117.811 578.222 117.002 578.358C102.658 580.792 91.1844 580.962 82.8984 578.869C82.0957 578.668 81.2846 579.153 81.0825 579.951C80.8804 580.754 81.3652 581.567 82.1657 581.768C86.2268 582.794 90.9865 583.308 96.4086 583.308" fill="#FF6F60"/>
<path fill-rule="evenodd" clip-rule="evenodd" d="M82.8043 683.847H64.8179L74.2836 609.503C73.6182 606.38 71.5166 598.716 71.8852 596.574L101.2 587.438L82.8043 683.847" fill="#829A74"/>
<path fill-rule="evenodd" clip-rule="evenodd" d="M109.331 685.331H129.394L118.21 596.85L89.0117 587.438L90.8269 600.775L90.3281 597.108L109.331 685.331" fill="#829A74"/>
<path fill-rule="evenodd" clip-rule="evenodd" d="M80.8267 598.145C78.9305 598.5 76.8769 597.744 75.4546 595.953L56.3161 575.769C53.4904 572.597 53.7701 567.738 56.9402 564.914C60.1103 562.087 64.9708 562.367 67.7968 565.535L83.8103 587.555C85.9736 590.276 85.8571 594.364 83.5495 596.684C82.7592 597.479 81.8142 597.963 80.8267 598.145" fill="#FF6F60"/>
<path fill-rule="evenodd" clip-rule="evenodd" d="M72.4351 607.058C73.1383 607.058 73.84 606.785 74.3687 606.244L83.4317 596.93C84.471 595.862 84.4476 594.156 83.3799 593.115C82.3126 592.078 80.6038 592.1 79.5648 593.168L70.5022 602.478C69.4629 603.546 69.486 605.256 70.5537 606.293C71.0778 606.804 71.7572 607.058 72.4351 607.058" fill="#FF6F60"/>
<path fill-rule="evenodd" clip-rule="evenodd" d="M71.737 601.729C72.6692 601.729 73.576 601.244 74.0756 600.382L78.6772 592.415C79.4228 591.128 78.9811 589.478 77.6912 588.732C76.401 587.986 74.7504 588.425 74.0052 589.716L69.4037 597.683C68.6585 598.974 69.1001 600.624 70.39 601.369C70.815 601.612 71.279 601.729 71.737 601.729" fill="#FF6F60"/>
<path fill-rule="evenodd" clip-rule="evenodd" d="M132.498 698.438C133.086 698.438 133.652 698.4 134.195 698.324C136.436 698.017 138.231 695.936 138.282 693.593C138.314 692.121 137.509 690.667 136.23 689.892C135.045 689.169 133.678 689.131 132.479 689.782C130.312 690.963 128.591 693.01 127.334 694.66C127.017 695.077 127.097 695.671 127.513 695.989C127.928 696.303 128.522 696.223 128.838 695.807C129.982 694.308 131.532 692.454 133.385 691.447C134.192 691.004 134.897 691.296 135.246 691.508C135.959 691.939 136.408 692.741 136.391 693.551C136.36 694.967 135.259 696.269 133.936 696.451C132.559 696.64 130.978 696.545 129.238 696.167C128.726 696.053 128.223 696.379 128.112 696.89C128.001 697.401 128.324 697.904 128.835 698.014C130.128 698.298 131.355 698.438 132.498 698.438" fill="#13322B"/>
<path fill-rule="evenodd" clip-rule="evenodd" d="M142.514 705.935L142.476 708.093H121.614L119.078 702.964C118.675 702.147 117.489 702.215 117.181 703.07L115.375 708.093H110.302L112.494 685.331L127.418 685.373L132.01 695.262L141.07 702.79C141.485 703.135 141.82 703.555 142.061 704.02C142.367 704.603 142.525 705.262 142.514 705.935" fill="#242863"/>
<path fill-rule="evenodd" clip-rule="evenodd" d="M50.7971 705.935L50.8357 708.093H71.6971L73.7113 704.02L74.2329 702.964C74.6367 702.147 75.8225 702.215 76.1306 703.07L77.9363 708.093H83.009L80.8176 685.331L65.8939 685.373L61.3018 695.262L52.241 702.79C51.8266 703.135 51.4913 703.555 51.2502 704.02C50.9447 704.603 50.7865 705.262 50.7971 705.935" fill="#242863"/>
<path fill-rule="evenodd" clip-rule="evenodd" d="M65.1918 687.927H81.6386C83.062 687.927 84.216 686.773 84.216 685.35C84.216 683.927 83.062 682.772 81.6386 682.772H65.1918C63.7687 682.772 62.6147 683.927 62.6147 685.35C62.6147 686.773 63.7687 687.927 65.1918 687.927" fill="#242863"/>
<path fill-rule="evenodd" clip-rule="evenodd" d="M128.728 687.908C130.151 687.908 131.305 686.754 131.306 685.331C131.306 683.908 130.152 682.753 128.729 682.753L111.036 682.75C109.613 682.75 108.459 683.904 108.458 685.327C108.458 686.75 109.612 687.905 111.035 687.905L128.728 687.908" fill="#242863"/>
<path fill-rule="evenodd" clip-rule="evenodd" d="M99.0068 602.906C100.531 602.906 101.972 602.353 103.113 601.316C104.47 600.086 105.265 598.266 105.294 596.32L105.311 595.208C105.319 594.685 104.902 594.258 104.379 594.246C104.374 594.246 104.369 594.246 104.364 594.246C103.849 594.246 103.427 594.663 103.418 595.181L103.401 596.29C103.38 597.736 102.826 599.023 101.841 599.916C100.964 600.711 99.8293 601.101 98.6427 600.998C95.9915 600.783 93.8697 598.262 93.9125 595.386L93.989 590.295L95.4412 590.412C95.9639 590.458 96.4188 590.068 96.4616 589.546C96.5043 589.027 96.1168 588.569 95.5956 588.527L93.1351 588.323C92.8766 588.304 92.6158 588.391 92.4224 588.565C92.2283 588.743 92.1159 588.993 92.1117 589.254L92.0201 595.359C91.963 599.212 94.8644 602.588 98.4883 602.887C98.662 602.898 98.835 602.906 99.0068 602.906" fill="#FF6F60"/>
<path fill-rule="evenodd" clip-rule="evenodd" d="M102.155 530.038L102.115 539.402L102.111 540.084L102.111 540.095L102.104 541.585L102.088 544.838C102.076 547.605 99.8251 549.837 97.0592 549.824C94.2936 549.811 92.0636 547.558 92.075 544.795L92.1344 531.771L92.1439 529.992C92.1435 529.553 92.2044 529.128 92.3119 528.725C92.6991 527.262 93.7331 526.064 95.0877 525.449C95.5369 525.246 96.021 525.109 96.5282 525.046C96.7401 525.02 96.9566 525.006 97.1731 525.008C99.9367 525.022 102.168 527.27 102.155 530.038" fill="#FF6F60"/>
<path fill-rule="evenodd" clip-rule="evenodd" d="M102.155 530.038L102.115 539.402L102.111 540.084L102.111 540.095L102.104 541.585C98.525 541.211 95.2607 538.931 93.7997 535.366L93.3471 534.261C93.1064 533.672 92.9372 533.073 92.8395 532.472C92.4191 529.889 93.2812 527.275 95.0877 525.449C95.537 525.246 96.021 525.109 96.5282 525.046C96.7401 525.02 96.9566 525.006 97.1731 525.008C99.9368 525.022 102.168 527.27 102.155 530.038" fill="#242863"/>
<path fill-rule="evenodd" clip-rule="evenodd" d="M105.048 538.546V538.546C108.205 537.252 109.714 533.644 108.42 530.487L106.476 525.748C104.771 521.588 100.016 519.599 95.8563 521.304C91.6965 523.01 89.7072 527.765 91.4126 531.925L91.8664 533.031C93.9832 538.194 99.8849 540.663 105.048 538.546" fill="#FF6F60"/>
<path fill-rule="evenodd" clip-rule="evenodd" d="M106.156 525.859C107.345 527.831 108.553 529.662 109.88 530.622C110.239 530.882 110.385 531.369 110.158 531.749C110.016 531.987 109.762 532.16 109.44 532.168L105.893 532.258L106.156 525.859" fill="#FF6F60"/>
<path fill-rule="evenodd" clip-rule="evenodd" d="M97.2367 532.851C97.2367 532.851 94.5771 527.448 98.2392 527.266C106.921 526.832 107.495 522.932 107.497 522.931C107.534 522.904 106.454 521.633 106.391 521.565C105.469 520.562 104.411 519.668 103.231 518.983C98.8354 516.432 93.0268 517.968 89.7292 521.612C86.0712 525.654 86.8694 529.625 88.5218 532.341C89.9071 534.617 92.8857 535.332 95.2001 534.012L97.2367 532.851" fill="#242863"/>
<path fill-rule="evenodd" clip-rule="evenodd" d="M90.029 518.356C90.3124 517.392 90.7265 516.464 90.8953 515.474C91.1966 513.708 90.6515 511.817 89.4567 510.482C88.2615 509.147 86.4417 508.397 84.6534 508.502C81.9954 508.658 79.7896 510.521 77.7999 512.291C76.224 510.264 74.0632 508.642 71.585 507.971C67.8744 506.966 61.7714 508.585 62.221 513.427C62.3739 515.072 63.3163 516.569 64.5441 517.675C64.9268 518.019 65.356 518.357 65.5289 518.842C65.7655 519.505 65.4392 520.254 64.9529 520.763C64.4662 521.273 63.8352 521.615 63.2785 522.047C61.7033 523.267 60.7518 525.253 60.7881 527.245C60.8244 529.237 61.8475 531.187 63.4658 532.349C64.3205 532.963 65.3412 533.371 65.9865 534.228C67.9149 536.79 67.1053 540.471 69.4257 542.939C71.0006 544.614 73.5443 545.142 75.7936 544.666C78.0429 544.191 80.022 542.837 81.668 541.232C83.4518 539.493 84.9729 537.268 85.0558 534.778C85.1273 532.626 84.0286 530.471 82.2452 529.264C81.2755 528.607 79.986 528.02 79.8702 526.854C79.7688 525.835 80.7502 524.963 81.7641 524.818C82.7777 524.673 83.7863 525.059 84.7242 525.47C87.4 526.645 89.985 528.094 92.824 528.786C92.5954 528.865 92.3672 528.943 92.1386 529.023C92.3706 529.799 93.5556 529.911 94.1381 529.348C94.7206 528.785 94.791 527.867 94.6343 527.072C94.4269 526.021 93.8826 525.039 93.1014 524.307C92.0917 523.36 90.6709 522.778 90.0596 521.537C89.5979 520.599 89.7114 519.48 89.9949 518.474C90.0059 518.434 90.0172 518.395 90.029 518.356" fill="#242863"/>
<path fill-rule="evenodd" clip-rule="evenodd" d="M91.8512 531.351C92.1918 533.445 94.1652 534.865 96.259 534.525C98.3523 534.184 99.7731 532.211 99.4325 530.117C99.0919 528.024 97.1185 526.603 95.0248 526.944C92.9314 527.284 91.5106 529.258 91.8512 531.351" fill="#FF6F60"/>
<path fill-rule="evenodd" clip-rule="evenodd" d="M86.695 527.571C87.0076 527.571 87.3138 527.416 87.494 527.133L90.9873 521.643C91.2678 521.202 91.1376 520.618 90.6966 520.337C90.2565 520.057 89.671 520.186 89.3905 520.627L85.8972 526.117C85.6167 526.557 85.7469 527.142 86.1878 527.423C86.3453 527.523 86.5209 527.571 86.695 527.571" fill="white"/>
<path fill-rule="evenodd" clip-rule="evenodd" d="M96.856 630.815C96.909 630.815 96.9631 630.807 97.0172 630.8C97.5323 630.709 97.8783 630.221 97.7893 629.706L93.6427 605.597C93.6068 605.389 93.5008 605.196 93.3422 605.056L89.1771 601.316C88.7884 600.968 88.1896 601.002 87.841 601.388C87.4917 601.778 87.5242 602.376 87.9133 602.724L91.8336 606.244L95.9246 630.028C96.0037 630.489 96.4037 630.815 96.856 630.815" fill="white"/>
<path fill-rule="evenodd" clip-rule="evenodd" d="M86.8646 585.609C86.9619 585.609 87.061 585.594 87.1579 585.564C87.6553 585.401 87.9262 584.868 87.7643 584.372C87.217 582.695 87.4656 581.355 88.5462 580.156C88.8963 579.77 88.8653 579.172 88.4777 578.82C88.0886 578.471 87.4902 578.502 87.1413 578.891C85.6031 580.595 85.2073 582.638 85.965 584.958C86.0955 585.356 86.4661 585.609 86.8646 585.609" fill="#242863"/>
<path fill-rule="evenodd" clip-rule="evenodd" d="M104.814 585.803C105.121 585.803 105.423 585.651 105.605 585.375C106.868 583.456 106.95 581.378 105.85 579.198C105.615 578.733 105.046 578.547 104.58 578.782C104.112 579.016 103.925 579.584 104.161 580.053C104.955 581.628 104.912 582.987 104.025 584.334C103.737 584.773 103.858 585.36 104.295 585.647C104.455 585.753 104.636 585.803 104.814 585.803" fill="#242863"/>
<path fill-rule="evenodd" clip-rule="evenodd" d="M90.3457 549.824H103.663V542.523H90.3457V549.824Z" fill="#CFAA72"/>
<path fill-rule="evenodd" clip-rule="evenodd" d="M147.96 573.669C148.132 573.669 148.305 573.623 148.462 573.525C149.787 572.692 150.564 571.212 150.649 569.346C150.729 567.613 150.191 565.732 149.136 564.048C146.851 560.407 142.976 558.859 140.314 560.528C139.871 560.808 139.737 561.391 140.015 561.833C140.292 562.276 140.876 562.409 141.319 562.132C143.023 561.065 145.869 562.401 147.533 565.054C148.385 566.413 148.821 567.908 148.758 569.263C148.702 570.486 148.24 571.432 147.456 571.92C147.013 572.2 146.879 572.783 147.157 573.226C147.337 573.513 147.645 573.669 147.96 573.669" fill="#242863"/>
<path fill-rule="evenodd" clip-rule="evenodd" d="M118.686 588.088C119.753 588.088 120.835 587.85 121.856 587.343C125.397 585.591 126.846 581.295 125.093 577.756L111.677 550.665C109.924 547.124 105.631 545.674 102.09 547.428C98.5485 549.182 97.0993 553.473 98.8528 557.015L112.268 584.107C113.517 586.628 116.051 588.088 118.686 588.088" fill="#FF6F60"/>
<path fill-rule="evenodd" clip-rule="evenodd" d="M155.217 564.43C155.217 566.356 154.1 568.237 152.08 569.312L123.718 588.198C120.085 590.397 115.357 589.235 113.158 585.602C110.959 581.969 112.121 577.241 115.755 575.042L145.348 559.559C148.42 557.931 152.417 558.794 154.276 561.485C154.913 562.409 155.216 563.423 155.217 564.43" fill="#FF6F60"/>
<path fill-rule="evenodd" clip-rule="evenodd" d="M145.023 566.001C145.679 566.001 146.337 565.762 146.855 565.281L157.769 555.172C158.862 554.158 158.927 552.453 157.915 551.359C156.903 550.266 155.195 550.201 154.102 551.213L143.189 561.323C142.096 562.337 142.03 564.044 143.043 565.134C143.574 565.709 144.298 566.001 145.023 566.001" fill="#FF6F60"/>
<path fill-rule="evenodd" clip-rule="evenodd" d="M147.933 566.364C148.453 566.364 148.978 566.212 149.442 565.902L156.728 560.971C157.962 560.138 158.286 558.457 157.451 557.224C156.616 555.99 154.939 555.668 153.705 556.501L146.418 561.432C145.184 562.265 144.86 563.945 145.695 565.179C146.217 565.948 147.067 566.364 147.933 566.364" fill="#FF6F60"/>
<path fill-rule="evenodd" clip-rule="evenodd" d="M151.58 569.191C152.151 569.191 152.725 569.009 153.214 568.638L158.253 564.801C159.438 563.896 159.668 562.204 158.765 561.02C157.861 559.831 156.168 559.604 154.984 560.509L149.944 564.347C148.759 565.247 148.53 566.943 149.433 568.128C149.964 568.824 150.767 569.191 151.58 569.191" fill="#FF6F60"/>
<path fill-rule="evenodd" clip-rule="evenodd" d="M143.946 565.342C145.325 565.342 146.501 564.29 146.629 562.889L147.074 558.022C147.209 556.539 146.117 555.229 144.633 555.093C143.142 554.957 141.836 556.05 141.701 557.534L141.256 562.401C141.12 563.885 142.213 565.198 143.697 565.331C143.781 565.338 143.864 565.342 143.946 565.342" fill="#FF6F60"/>
<path fill-rule="evenodd" clip-rule="evenodd" d="M146.072 574.195C146.921 574.195 147.736 573.979 148.461 573.525C148.904 573.248 149.038 572.662 148.76 572.219C148.483 571.776 147.899 571.644 147.456 571.92C145.753 572.991 142.905 571.651 141.242 568.998C140.39 567.639 139.954 566.144 140.016 564.793C140.072 563.567 140.535 562.625 141.319 562.133C141.762 561.856 141.895 561.27 141.618 560.827C141.34 560.384 140.756 560.251 140.313 560.528C138.988 561.36 138.211 562.844 138.126 564.706C138.046 566.44 138.583 568.321 139.639 570.005C141.301 572.654 143.805 574.195 146.072 574.195" fill="#242863"/>
<path fill-rule="evenodd" clip-rule="evenodd" d="M141.331 567.844C140.944 569.047 139.655 569.71 138.452 569.324C137.248 568.934 136.586 567.647 136.973 566.443C137.36 565.24 138.65 564.577 139.853 564.964C141.056 565.353 141.718 566.64 141.331 567.844" fill="white"/>
<path fill-rule="evenodd" clip-rule="evenodd" d="M143.438 570.925C143.051 572.128 141.761 572.79 140.558 572.404C139.355 572.018 138.693 570.728 139.08 569.524C139.467 568.321 140.756 567.658 141.959 568.044C143.163 568.434 143.825 569.721 143.438 570.925" fill="white"/>
<path fill-rule="evenodd" clip-rule="evenodd" d="M118.432 574.187C118.584 574.187 118.737 574.149 118.88 574.073L122.392 572.181C122.852 571.931 123.024 571.356 122.777 570.898C122.528 570.436 121.955 570.266 121.495 570.512L117.983 572.404C117.522 572.654 117.351 573.226 117.598 573.687C117.769 574.005 118.095 574.187 118.432 574.187" fill="#242863"/>
<path fill-rule="evenodd" clip-rule="evenodd" d="M190.094 696.121C194.26 700.345 199.396 702.033 201.566 699.891C203.735 697.753 202.117 692.594 197.952 688.37C195.07 685.448 190.685 684.767 188.256 684.623C187.257 684.563 186.432 685.376 186.477 686.379C186.589 688.809 187.213 693.203 190.094 696.121" fill="white"/>
<path fill-rule="evenodd" clip-rule="evenodd" d="M206.91 709.648C206.417 709.648 206.001 709.266 205.967 708.766C205.936 708.32 203.047 663.966 214.258 632.06C214.431 631.568 214.971 631.307 215.464 631.481C215.957 631.655 216.217 632.193 216.043 632.688C204.963 664.223 207.825 708.195 207.855 708.638C207.89 709.156 207.497 709.61 206.975 709.644C206.953 709.644 206.931 709.648 206.91 709.648" fill="#13322B"/>
<path fill-rule="evenodd" clip-rule="evenodd" d="M202.715 709.648C202.711 709.648 202.707 709.648 202.703 709.648C202.181 709.641 201.762 709.213 201.769 708.691C202.016 688.298 196.323 676.047 192.019 668.61C191.757 668.156 191.912 667.577 192.364 667.315C192.816 667.054 193.396 667.209 193.657 667.66C198.073 675.294 203.914 687.855 203.661 708.713C203.655 709.232 203.232 709.648 202.715 709.648" fill="#13322B"/>
<path fill-rule="evenodd" clip-rule="evenodd" d="M215.032 645.212C214.216 648.706 212.1 651.2 210.304 650.78C208.509 650.36 207.715 647.188 208.53 643.695C209.095 641.276 211.141 639.539 212.348 638.699C212.845 638.354 213.528 638.513 213.82 639.043C214.531 640.33 215.596 642.794 215.032 645.212" fill="white"/>
<path fill-rule="evenodd" clip-rule="evenodd" d="M227.758 635.228C228.633 633.604 227.879 631.931 226.083 631.511C224.288 631.095 222.104 632.079 221.229 633.703L215.275 644.762C214.498 646.204 212.848 646.949 211.251 646.575C209.653 646.204 208.504 644.807 208.446 643.165L208.004 630.614C207.939 628.771 206.417 626.92 204.621 626.5C202.835 626.565 201.438 628.063 201.501 629.85C201.501 629.85 202.06 646.427 202.097 646.756L202.116 646.912C202.48 649.618 204.47 651.945 207.287 652.604L212.126 653.732C214.943 654.39 217.759 653.183 219.283 650.916L219.305 650.927L227.758 635.228" fill="#FF6F60"/>
<path fill-rule="evenodd" clip-rule="evenodd" d="M187.713 657.645V657.645L191.561 650.148C192.463 648.388 191.368 646.264 189.411 645.981C187.455 645.693 185.799 647.419 186.163 649.36L187.713 657.645" fill="#FCCC6C"/>
<path fill-rule="evenodd" clip-rule="evenodd" d="M184.407 660.109V660.109L176.124 661.661C174.181 662.024 172.456 660.366 172.741 658.41C173.026 656.453 175.151 655.359 176.91 656.264L184.407 660.109" fill="#FCCC6C"/>
<path fill-rule="evenodd" clip-rule="evenodd" d="M186.767 663.277V663.277L182.92 670.771C182.017 672.531 183.112 674.654 185.069 674.942C187.025 675.226 188.681 673.5 188.318 671.558L186.767 663.277" fill="#FCCC6C"/>
<path fill-rule="evenodd" clip-rule="evenodd" d="M190.073 660.809V660.809L198.356 659.261C200.299 658.894 202.024 660.552 201.739 662.509C201.454 664.465 199.329 665.559 197.57 664.658L190.073 660.809" fill="#FCCC6C"/>
<path fill-rule="evenodd" clip-rule="evenodd" d="M185.583 658.133V658.133L183.004 650.114C182.398 648.232 180.121 647.502 178.536 648.687C176.951 649.868 176.999 652.256 178.631 653.376L185.583 658.133" fill="#FCCC6C"/>
<path fill-rule="evenodd" clip-rule="evenodd" d="M184.989 662.217V662.217L180.229 669.17C179.112 670.801 176.721 670.85 175.539 669.264C174.357 667.679 175.086 665.4 176.968 664.795L184.989 662.217" fill="#FCCC6C"/>
<path fill-rule="evenodd" clip-rule="evenodd" d="M188.896 662.785V662.785L191.477 670.805C192.082 672.69 194.359 673.416 195.944 672.236C197.529 671.051 197.481 668.663 195.85 667.546L188.896 662.785" fill="#FCCC6C"/>
<path fill-rule="evenodd" clip-rule="evenodd" d="M189.491 658.705V658.705L194.251 651.752C195.368 650.121 197.759 650.072 198.941 651.658C200.123 653.24 199.395 655.518 197.513 656.124L189.491 658.705" fill="#FCCC6C"/>
<path fill-rule="evenodd" clip-rule="evenodd" d="M565.071 335.614L560.14 336.115L560.087 327.811L559.053 326.192L565.071 335.614" fill="white"/>
<path fill-rule="evenodd" clip-rule="evenodd" d="M559.053 326.192L553.679 317.778L527.575 342.417L571.369 345.48L559.053 326.192" fill="white"/>
<path fill-rule="evenodd" clip-rule="evenodd" d="M568.095 322.198L534.736 340.379L565.049 335.624L568.095 322.198" fill="#13322B"/>
<path fill-rule="evenodd" clip-rule="evenodd" d="M662.878 306.963C662.355 306.963 661.882 306.596 661.769 306.062C661.64 305.449 662.034 304.846 662.647 304.716L666.428 303.916C667.037 303.785 667.643 304.178 667.771 304.792C667.904 305.405 667.51 306.008 666.897 306.137L663.116 306.938C663.037 306.955 662.957 306.963 662.878 306.963ZM651.538 309.363C651.012 309.363 650.539 308.997 650.426 308.462C650.297 307.849 650.691 307.246 651.304 307.117L655.085 306.316C655.694 306.187 656.3 306.578 656.428 307.192C656.561 307.806 656.167 308.408 655.554 308.538L651.773 309.338C651.694 309.355 651.614 309.363 651.538 309.363ZM640.195 311.764C639.669 311.764 639.196 311.398 639.083 310.863C638.954 310.25 639.348 309.647 639.961 309.517L643.742 308.717C644.355 308.587 644.957 308.979 645.085 309.593C645.218 310.206 644.824 310.809 644.211 310.939L640.43 311.739C640.351 311.756 640.271 311.764 640.195 311.764ZM628.852 314.164C628.326 314.164 627.853 313.798 627.743 313.264C627.611 312.65 628.005 312.048 628.618 311.918L632.399 311.117C633.012 310.988 633.614 311.38 633.746 311.993C633.875 312.607 633.481 313.209 632.868 313.34L629.087 314.14C629.008 314.156 628.928 314.164 628.852 314.164ZM617.509 316.565C616.983 316.565 616.51 316.199 616.4 315.665C616.268 315.051 616.662 314.448 617.275 314.319L621.056 313.518C621.669 313.388 622.271 313.78 622.403 314.394C622.532 315.007 622.138 315.61 621.525 315.74L617.744 316.54C617.665 316.557 617.585 316.565 617.509 316.565ZM606.166 318.966C605.64 318.966 605.171 318.599 605.057 318.065C604.925 317.451 605.319 316.849 605.932 316.719L609.713 315.919C610.326 315.789 610.931 316.181 611.06 316.795C611.189 317.408 610.799 318.011 610.182 318.141L606.401 318.941C606.322 318.958 606.246 318.966 606.166 318.966ZM594.823 321.366C594.297 321.366 593.828 321 593.714 320.466C593.586 319.852 593.976 319.249 594.589 319.12L598.37 318.32C598.983 318.189 599.588 318.582 599.717 319.195C599.846 319.808 599.456 320.411 598.839 320.541L595.062 321.341C594.982 321.358 594.903 321.366 594.823 321.366ZM583.48 323.767C582.954 323.767 582.485 323.401 582.371 322.866C582.243 322.253 582.633 321.65 583.246 321.52L587.027 320.72C587.64 320.59 588.245 320.982 588.374 321.596C588.503 322.209 588.113 322.812 587.5 322.942L583.719 323.742C583.639 323.759 583.56 323.767 583.48 323.767V323.767Z" fill="#13322B"/>
<path fill-rule="evenodd" clip-rule="evenodd" d="M196.226 408.754L200.851 410.537L197.144 417.967L197.334 419.878L196.226 408.754" fill="white"/>
<path fill-rule="evenodd" clip-rule="evenodd" d="M197.334 419.878L198.323 429.813L232.746 419.636L195.067 397.106L197.334 419.878" fill="#CFAA72"/>
<path fill-rule="evenodd" clip-rule="evenodd" d="M187.463 419.353L225.438 418.217L196.251 408.755L187.463 419.353" fill="#13322B"/>
<path fill-rule="evenodd" clip-rule="evenodd" d="M103.703 388.967C103.606 388.967 103.507 388.955 103.41 388.928L99.6753 387.933C99.0694 387.771 98.709 387.149 98.8707 386.544C99.0323 385.938 99.6545 385.577 100.26 385.739L103.994 386.734C104.6 386.896 104.961 387.518 104.799 388.123C104.664 388.632 104.205 388.967 103.703 388.967ZM114.905 391.953C114.808 391.953 114.71 391.941 114.612 391.915L110.878 390.919C110.272 390.758 109.912 390.135 110.073 389.53C110.235 388.924 110.856 388.564 111.463 388.725L115.197 389.721C115.803 389.882 116.163 390.504 116.002 391.11C115.866 391.618 115.407 391.953 114.905 391.953ZM126.108 394.94C126.011 394.94 125.913 394.927 125.815 394.901L122.081 393.906C121.475 393.744 121.114 393.122 121.276 392.516C121.437 391.91 122.06 391.551 122.666 391.711L126.4 392.707C127.006 392.868 127.366 393.491 127.204 394.096C127.069 394.604 126.61 394.94 126.108 394.94ZM137.31 397.926C137.214 397.926 137.115 397.914 137.017 397.887L133.283 396.892C132.677 396.73 132.317 396.108 132.478 395.502C132.64 394.896 133.262 394.536 133.868 394.698L137.602 395.693C138.208 395.855 138.568 396.477 138.407 397.083C138.271 397.591 137.813 397.926 137.31 397.926ZM148.513 400.912C148.416 400.912 148.318 400.9 148.22 400.874L144.486 399.879C143.88 399.717 143.52 399.095 143.681 398.489C143.843 397.883 144.465 397.523 145.071 397.684L148.805 398.68C149.411 398.841 149.771 399.463 149.61 400.069C149.474 400.577 149.015 400.912 148.513 400.912ZM159.716 403.899C159.619 403.899 159.521 403.886 159.423 403.86L155.688 402.865C155.082 402.703 154.722 402.081 154.884 401.475C155.045 400.869 155.667 400.509 156.273 400.67L160.008 401.666C160.613 401.827 160.974 402.45 160.812 403.056C160.677 403.563 160.218 403.899 159.716 403.899ZM170.919 406.885C170.822 406.885 170.723 406.873 170.625 406.846L166.891 405.851C166.285 405.69 165.924 405.067 166.086 404.462C166.248 403.856 166.87 403.496 167.476 403.657L171.21 404.652C171.816 404.814 172.177 405.436 172.015 406.042C171.879 406.55 171.42 406.885 170.919 406.885V406.885Z" fill="#13322B"/>
<path fill-rule="evenodd" clip-rule="evenodd" d="M346.171 398.066L341.731 388.146C341.413 387.484 340.959 386.436 340.373 385.002C339.786 383.568 339.377 382.516 339.146 381.846C338.87 383.995 338.401 386.362 337.731 388.945L335.214 399.047L346.171 398.066ZM352.953 413.324L348.264 403.219L333.889 404.505L331.145 415.275L324.666 415.855L335.354 376.844L342.042 376.246L359.486 412.74L352.953 413.324V413.324Z" fill="white"/>
<path fill-rule="evenodd" clip-rule="evenodd" d="M439.178 367.56L441.706 372.334L446.327 374.945L441.706 377.556L439.178 382.329L436.65 377.556L432.029 374.945L436.65 372.334L439.178 367.56" fill="white"/>
<path fill-rule="evenodd" clip-rule="evenodd" d="M448.64 356.771L450.616 360.503L454.226 362.544L450.616 364.585L448.64 368.316L446.664 364.585L443.05 362.544L446.664 360.503L448.64 356.771" fill="white"/>
<path fill-rule="evenodd" clip-rule="evenodd" d="M359.948 604.318L364.724 601.789L367.335 597.168L369.943 601.789L374.72 604.318L369.943 606.846L367.335 611.467L364.724 606.846L359.948 604.318" fill="white"/>
<path fill-rule="evenodd" clip-rule="evenodd" d="M349.161 594.856L352.893 592.88L354.933 589.269L356.973 592.88L360.704 594.856L356.973 596.831L354.933 600.446L352.893 596.831L349.161 594.856" fill="white"/>
</svg>
